<svg width="34" height="34" viewBox="0 0 34 34" fill="none" xmlns="http://www.w3.org/2000/svg">
<path fill-rule="evenodd" clip-rule="evenodd" d="M17 3.25C9.40608 3.25 3.25 9.40608 3.25 17C3.25 24.5939 9.40608 30.75 17 30.75C24.5939 30.75 30.75 24.5939 30.75 17C30.75 9.40608 24.5939 3.25 17 3.25ZM0.75 17C0.75 8.02537 8.02537 0.75 17 0.75C25.9746 0.75 33.25 8.02537 33.25 17C33.25 25.9746 25.9746 33.25 17 33.25C8.02537 33.25 0.75 25.9746 0.75 17Z" fill="#00746F"/>
<path fill-rule="evenodd" clip-rule="evenodd" d="M9.5 17C9.5 16.3096 10.0596 15.75 10.75 15.75H23.25C23.9404 15.75 24.5 16.3096 24.5 17C24.5 17.6904 23.9404 18.25 23.25 18.25H10.75C10.0596 18.25 9.5 17.6904 9.5 17Z" fill="#95BE1B"/>
<path fill-rule="evenodd" clip-rule="evenodd" d="M17 9.5C17.6904 9.5 18.25 10.0596 18.25 10.75V23.25C18.25 23.9404 17.6904 24.5 17 24.5C16.3096 24.5 15.75 23.9404 15.75 23.25V10.75C15.75 10.0596 16.3096 9.5 17 9.5Z" fill="#95BE1B"/>
</svg>
