<svg width="20" height="20" viewBox="0 0 20 20" fill="none" xmlns="http://www.w3.org/2000/svg">
<g id="twitter-sign" clip-path="url(#clip0_44_2910)">
<g id="Group">
<path id="Vector" d="M18.9005 1.10016C18.1673 0.366766 17.2839 0 16.251 0H3.75095C2.71806 0 1.83467 0.366766 1.10114 1.10016C0.367742 1.83369 0.000976562 2.71704 0.000976562 3.74998V16.2499C0.000976562 17.2828 0.367742 18.1662 1.10114 18.8997C1.83467 19.6333 2.71806 20 3.75095 20H16.2509C17.2838 20 18.1672 19.6333 18.9004 18.8997C19.6339 18.1662 20.0007 17.2828 20.0007 16.2499V3.74998C20.0007 2.71704 19.6339 1.83355 18.9005 1.10016ZM15.3004 7.69537C15.3091 7.7735 15.3136 7.89048 15.3136 8.047C15.3136 8.7762 15.2071 9.50754 14.9945 10.2408C14.782 10.9745 14.4564 11.6776 14.0178 12.3503C13.5797 13.023 13.0567 13.6178 12.4492 14.1342C11.8415 14.6505 11.1124 15.063 10.2615 15.3709C9.41106 15.6793 8.49943 15.8335 7.52729 15.8335C6.01699 15.8335 4.61943 15.4252 3.33466 14.6096C3.54299 14.6355 3.76012 14.6486 3.98569 14.6486C5.24442 14.6486 6.37724 14.258 7.38422 13.4765C6.79403 13.4681 6.2666 13.2859 5.80223 12.9297C5.33773 12.5738 5.01448 12.1225 4.83214 11.5756C5.05776 11.6102 5.227 11.6274 5.33983 11.6274C5.53078 11.6274 5.7522 11.5927 6.00386 11.5235C5.3702 11.4017 4.83643 11.0874 4.40239 10.5796C3.96827 10.0717 3.75127 9.49231 3.75127 8.84132V8.81528C4.21121 9.03214 4.64525 9.14497 5.05329 9.15377C4.26334 8.62414 3.86839 7.86471 3.86839 6.87514C3.86839 6.38898 3.99417 5.92895 4.24592 5.49492C4.93161 6.33699 5.76511 7.00964 6.74587 7.51309C7.72673 8.01649 8.77718 8.29874 9.8969 8.35945C9.85358 8.19453 9.83182 7.98611 9.83182 7.73446C9.83182 6.97913 10.0988 6.33471 10.6327 5.8008C11.1664 5.26693 11.811 4.99991 12.5661 4.99991C13.3649 4.99991 14.0291 5.28645 14.5586 5.8594C15.1575 5.74657 15.7394 5.52511 16.3034 5.19537C16.0865 5.8636 15.6826 6.37147 15.0926 6.71872C15.6567 6.64046 16.1817 6.49296 16.6677 6.27597C16.3032 6.8315 15.8473 7.30457 15.3004 7.69537Z" fill="#8F8F8F"/>
</g>
</g>
<defs>
<clipPath id="clip0_44_2910">
<rect width="20" height="20" fill="white"/>
</clipPath>
</defs>
</svg>
