<svg width="32" height="32" viewBox="0 0 32 32" fill="none" xmlns="http://www.w3.org/2000/svg">
<g clip-path="url(#clip0_34_862)">
<path d="M30.2413 1.76026C29.0681 0.586825 27.6547 0 26.0021 0H6.00192C4.34929 0 2.93586 0.586825 1.76221 1.76026C0.588778 2.93391 0.00195312 4.34726 0.00195312 5.99996V25.9999C0.00195312 27.6524 0.588778 29.0659 1.76221 30.2396C2.93586 31.4132 4.34929 32.0001 6.00192 32.0001H26.0018C27.6545 32.0001 29.0679 31.4132 30.241 30.2396C31.4147 29.0659 32.0015 27.6525 32.0015 25.9999V5.99996C32.0014 4.34726 31.4146 2.93369 30.2413 1.76026ZM24.4811 12.3126C24.495 12.4376 24.5021 12.6248 24.5021 12.8752C24.5021 14.0419 24.3318 15.2121 23.9917 16.3853C23.6515 17.5592 23.1306 18.6842 22.4289 19.7605C21.728 20.8367 20.8912 21.7884 19.9191 22.6147C18.9467 23.4407 17.7802 24.1008 16.4188 24.5935C15.0581 25.0869 13.5995 25.3336 12.0441 25.3336C9.62758 25.3336 7.39148 24.6804 5.33585 23.3754C5.66917 23.4168 6.01658 23.4378 6.37749 23.4378C8.39147 23.4378 10.204 22.8128 11.8151 21.5624C10.8708 21.5489 10.0269 21.2575 9.28396 20.6874C8.54076 20.1181 8.02355 19.3959 7.73182 18.5209C8.0928 18.5763 8.36359 18.6039 8.54412 18.6039C8.84965 18.6039 9.20391 18.5484 9.60656 18.4376C8.59272 18.2428 7.73868 17.7398 7.04422 16.9273C6.34962 16.1147 6.00243 15.1877 6.00243 14.1461V14.1044C6.73833 14.4514 7.43279 14.6319 8.08565 14.646C6.82173 13.7986 6.18981 12.5835 6.18981 11.0002C6.18981 10.2224 6.39107 9.48632 6.79386 8.79187C7.89096 10.1392 9.22457 11.2154 10.7938 12.0209C12.3632 12.8264 14.0439 13.278 15.8354 13.3751C15.7661 13.1113 15.7313 12.7778 15.7313 12.3751C15.7313 11.1666 16.1584 10.1355 17.0127 9.28128C17.8666 8.42709 18.898 7.99985 20.1062 7.99985C21.3842 7.99985 22.447 8.45832 23.2941 9.37504C24.2525 9.19452 25.1834 8.84017 26.0859 8.3126C25.7388 9.38176 25.0926 10.1944 24.1485 10.7499C25.051 10.6247 25.8911 10.3887 26.6687 10.0416C26.0855 10.9304 25.3561 11.6873 24.4811 12.3126Z" fill="white"/>
</g>
<defs>
<clipPath id="clip0_34_862">
<rect width="32" height="32" fill="white"/>
</clipPath>
</defs>
</svg>
