<svg width="165" height="94" viewBox="0 0 165 94" fill="none" xmlns="http://www.w3.org/2000/svg">
<path d="M9.91113 38.7528C10.4978 37.6099 10.6914 36.2742 11.5979 35.2887C12.3342 34.4872 13.1321 33.7154 14.3114 33.9084C15.561 34.1102 16.2005 35.0957 16.491 36.2148C16.8313 37.4354 16.8737 38.7214 16.6147 39.9623C16.3556 41.2032 15.8028 42.3619 15.0037 43.3389C14.3202 44.2146 13.4401 44.8855 12.2462 44.6094C11.0523 44.3333 10.5418 43.422 10.2191 42.3386C10.1343 42.1204 10.0313 41.9098 9.91113 41.7093V38.7528Z" fill="white"/>
<path d="M148.284 47.4406C145.283 49.4146 142.235 50.2754 138.841 49.1088C136.412 48.2717 134.942 46.2948 134.913 43.8518C134.88 41.3079 136.306 39.3102 138.829 38.479C141.038 37.7518 143.358 37.636 145.64 37.3095C147.811 37.0126 148.832 35.6383 148.022 33.9849C147.93 33.8116 147.815 33.651 147.682 33.507C146.01 31.5805 141.067 32.3849 140.205 34.7804C139.996 35.3741 139.817 35.5522 139.251 35.5077C138.685 35.4631 138.181 35.5077 137.644 35.5077C135.529 35.5077 135.338 35.2108 136.177 33.2161C137.365 30.3812 139.853 29.4195 142.551 29.0603C144.449 28.8169 146.4 28.8644 148.286 29.556C151.056 30.5682 152.393 32.3048 152.408 35.2346C152.426 38.3365 152.44 41.4415 152.408 44.5434C152.408 45.5764 152.514 46.3245 153.801 46.1404C154.318 46.0662 154.567 46.3482 154.444 46.8232C154.236 47.6424 155.08 48.7823 153.825 49.2721C151.795 50.0676 149.627 49.6402 148.753 48.3311C148.579 48.0442 148.422 47.7468 148.284 47.4406ZM148.046 39.4259C146.835 39.8598 145.578 40.1439 144.3 40.2719C143.027 40.3936 141.712 40.5272 140.574 41.2455C138.876 42.3201 138.861 44.6354 140.598 45.5438C143.423 47.028 148.624 45.8703 148.055 41.3257C148.019 40.689 148.019 40.0507 148.055 39.4141L148.046 39.4259Z" fill="white"/>
<path d="M97.892 47.4107C94.7942 49.4886 91.5057 50.3999 87.8917 48.9216C85.5449 47.9658 84.4888 46.0957 84.5622 43.2995C84.6208 41.1266 86.0113 39.2744 88.2202 38.5174C90.4291 37.7605 92.7642 37.6685 95.0465 37.3123C96.9914 37.0154 97.7453 36.4603 97.7277 34.9761C97.7101 33.4919 96.6364 32.5569 94.8881 32.5332C93.7821 32.5332 92.641 32.3135 91.582 32.83C91.1068 33.0645 90.4086 33.2189 90.3118 33.7205C89.8278 35.8904 88.2056 35.5015 86.7183 35.5015C85.231 35.5015 85.1049 35.3234 85.5449 33.8452C86.5012 30.5978 89.0915 29.4698 92.025 29.072C94.0227 28.8019 96.082 28.8642 98.0533 29.6034C100.605 30.5621 101.799 32.1829 101.808 34.9079C101.808 38.0603 101.808 41.2117 101.808 44.3622C101.808 45.3952 101.946 46.2827 103.298 46.1432C103.633 46.1076 103.785 46.2115 103.87 46.5944C104.258 48.325 103.774 49.1383 102.055 49.5242C100.03 49.9843 98.6869 49.2897 97.892 47.4107ZM97.4431 39.5593C96.7831 39.7107 96.3137 39.8087 95.8503 39.9304C94.2192 40.3549 92.4885 40.245 90.8956 40.8209C89.599 41.3047 88.8128 42.2398 88.892 43.7091C88.9683 45.0924 89.9803 45.5288 91.1097 45.8553C91.8015 46.0803 92.5289 46.1719 93.2541 46.1254C95.4484 45.9295 97.3053 44.659 97.4255 43.157C97.5165 42.0112 97.4402 40.8298 97.4402 39.5593H97.4431Z" fill="white"/>
<path d="M113.325 28.9922C118.227 29.013 121.19 31.1384 122.164 35.021C122.36 35.8106 122.243 36.1342 121.404 36.0837C120.87 36.0392 120.333 36.0392 119.799 36.0837C118.652 36.2054 117.931 36.0154 117.488 34.6589C117.027 33.237 115.686 32.6166 114.146 32.5097C112.025 32.3613 110.189 32.9342 109.262 34.926C107.907 37.841 107.795 40.8628 109.374 43.7807C110.33 45.5291 111.911 46.3246 113.859 46.1139C115.751 45.9091 117.109 44.8375 117.608 42.9525C117.901 41.8988 118.403 41.6554 119.418 41.6732C122.744 41.7355 122.838 41.8542 121.351 44.974C119.553 48.7498 115.898 49.9164 112.527 49.6106C106.173 49.0318 103.468 43.7659 104.096 38.0339C104.539 34.0177 106.15 30.9692 110.104 29.5087C111.138 29.1416 112.229 28.9666 113.325 28.9922Z" fill="white"/>
<path d="M48.5447 54.072C44.6461 54.072 41.299 50.7088 41.2784 46.7667C41.255 42.7772 44.6549 39.3636 48.6122 39.3933C52.502 39.4259 55.8315 42.8455 55.8051 46.7786C55.7585 48.7073 54.9769 50.5431 53.6239 51.9022C52.2708 53.2614 50.451 54.0388 48.5447 54.072Z" fill="white"/>
<path d="M43.2356 34.861C39.8826 34.861 36.996 32.5872 36.5795 29.699C36.1248 26.5495 38.3015 23.3199 41.5664 22.278C44.8314 21.2361 48.2167 22.2483 49.8183 24.6527C52.2326 28.3009 50.056 33.2195 45.4181 34.4959C44.6965 34.7304 43.9396 34.9886 43.2356 34.861Z" fill="white"/>
<path d="M73.113 42.4091C73.0983 45.3448 71.4379 47.9006 68.9914 48.7614C66.5449 49.6222 63.8285 48.6724 61.951 46.2234C60.9962 45.0046 60.4291 43.5216 60.3243 41.9699C60.2196 40.4182 60.5822 38.8709 61.3643 37.532C63.6642 33.5781 68.9181 33.584 71.6756 37.5676C72.6739 38.9745 73.1798 40.6783 73.113 42.4091Z" fill="white"/>
<path d="M23.968 51.3024C23.968 47.6662 26.2121 44.8046 29.2483 44.4217C32.2844 44.0388 35.5553 46.5293 36.4617 49.8776C37.1511 52.4156 36.7551 54.7665 35.127 56.8088C32.1818 60.5133 26.3588 59.0707 24.5283 54.1907C24.1408 53.2792 23.9498 52.2945 23.968 51.3024Z" fill="white"/>
<path d="M53.1001 71.5531C48.2217 71.5531 44.9948 67.3973 46.6288 63.3752C48.3156 59.2194 53.6692 57.3315 57.5209 59.5875C59.6359 60.8253 60.7477 62.6598 60.5306 65.1977C60.2871 67.9316 58.6591 69.6503 56.3621 70.808C55.3641 71.3576 54.2347 71.6155 53.1001 71.5531Z" fill="white"/>
<path d="M125.511 39.6246C125.511 37.7041 125.469 35.7657 125.528 33.863C125.555 33.0229 125.302 32.7083 124.475 32.8151C124.044 32.8686 123.595 32.7825 123.161 32.833C122.424 32.919 122.21 32.5866 122.281 31.9068C122.326 31.564 122.326 31.2166 122.281 30.8738C122.131 29.8824 122.436 29.5084 123.51 29.5529C125.508 29.636 125.511 29.5529 125.511 27.5611C125.511 27.2643 125.49 26.9674 125.511 26.6706C125.59 25.7059 125.068 24.2068 125.716 23.8892C126.707 23.4024 128.077 23.6963 129.286 23.6814C129.993 23.6814 129.832 24.2306 129.834 24.6372C129.849 25.9671 129.887 27.3088 129.834 28.6267C129.796 29.4282 130.087 29.6746 130.829 29.5885C131.213 29.541 131.618 29.636 132.002 29.5707C133.393 29.3243 133.721 29.8468 133.762 31.2775C133.836 33.0585 132.859 32.8359 131.785 32.827C129.843 32.8062 129.843 32.827 129.843 34.7149C129.843 37.621 129.829 40.527 129.843 43.4331C129.858 45.5584 130.207 45.8345 132.343 45.882C132.771 45.882 133.868 45.1933 133.636 46.44C133.469 47.3484 134.71 48.8533 132.592 49.1442C131.301 49.3537 129.985 49.3387 128.699 49.0997C126.69 48.693 125.631 47.6155 125.552 45.5377C125.478 43.5696 125.534 41.5986 125.534 39.6306L125.511 39.6246Z" fill="white"/>
<path d="M32.4491 33.1303C32.4491 36.8734 29.3689 40.1624 25.8546 40.1832C22.836 40.1832 20.5039 37.7669 20.4951 34.6026C20.4951 30.8802 23.6926 27.523 27.2421 27.52C30.3986 27.5171 32.4491 29.7344 32.4491 33.1303Z" fill="white"/>
<path d="M67.5775 25.0533C67.5511 28.9122 63.6349 31.3522 59.6571 29.9778C56.9495 29.0458 55.1688 27.1757 54.8285 24.2874C54.5821 22.1918 55.5619 20.4879 57.3953 19.3748C59.6629 18.0004 61.9657 18.2141 64.1424 19.4697C66.2516 20.6749 67.5834 22.4797 67.5775 25.0533Z" fill="white"/>
<path d="M29.5039 68.4037C29.5362 64.6398 33.3879 62.1493 37.3158 63.4316C40.085 64.337 41.9097 66.2664 42.2763 69.2081C42.514 71.096 41.6896 72.7375 40.0557 73.8715C37.7646 75.4774 35.3621 75.3557 33.0564 74.0792C30.912 72.8889 29.5068 71.0456 29.5039 68.4037Z" fill="white"/>
<path d="M16.7219 61.1997C14.8738 61.1018 12.97 59.1367 12.3217 56.6433C11.6118 53.9539 12.2073 51.3892 13.7885 50.3265C15.0704 49.4657 16.4286 49.6022 17.7985 50.7272C19.9869 52.5083 20.9491 56.2425 19.9077 58.8814C19.2741 60.4933 18.1887 61.2799 16.7219 61.1997Z" fill="white"/>
<path d="M45.5935 13.1886C45.3442 15.2249 44.1268 16.5102 42.443 17.3444C40.8367 18.1779 38.9945 18.4223 37.2301 18.036C34.2966 17.38 33.311 14.4977 35.294 12.2387C37.2771 9.97978 40.9997 9.14863 43.5372 10.3924C44.0879 10.6411 44.5663 11.029 44.9264 11.5186C45.2865 12.0082 45.5162 12.5833 45.5935 13.1886Z" fill="white"/>
<path d="M73.3677 17.8492C76.2073 17.8343 79.8009 21.5745 79.7305 24.7952C79.6923 26.4575 78.296 27.3985 76.6855 27.063C73.9104 26.4872 71.2791 23.501 71.0414 20.6662C70.9036 18.9297 71.7836 17.8759 73.3677 17.8492Z" fill="white"/>
<path d="M19.7763 66.2842C22.5954 66.2842 26.4177 70.4399 26.1772 73.2629C26.0276 75.0231 24.6136 76.0086 22.877 75.5545C20.2017 74.8599 17.6583 71.9063 17.3562 69.1457C17.3094 68.7934 17.3367 68.435 17.4362 68.0941C17.5358 67.7531 17.7053 67.4373 17.9337 67.1672C18.1622 66.8971 18.4444 66.6788 18.7619 66.5267C19.0794 66.3745 19.4251 66.2919 19.7763 66.2842Z" fill="white"/>
<path d="M26.3643 15.3999C28.8578 15.3999 29.9872 17.0592 29.0661 19.3805C28.186 21.5979 25.3317 23.6016 23.0201 23.6253C20.8024 23.6461 19.5293 21.7137 20.3448 19.5616C21.2307 17.2344 23.8738 15.4058 26.3643 15.3999Z" fill="white"/>
<path d="M41.695 78.959C43.0268 79.051 44.8573 79.425 46.0336 81.209C46.8521 82.4558 46.6409 83.8272 45.4997 84.7325C43.1529 86.5908 39.1399 86.1692 37.1099 84.035C35.7928 82.6487 36.0421 80.9894 37.6203 79.8792C38.4711 79.3033 39.7266 78.959 41.695 78.959Z" fill="white"/>
<path d="M151.158 78.3833C151.745 78.2586 151.66 77.7539 151.783 77.4334C151.93 77.0386 151.824 76.5429 152.502 76.5785C153.3 76.6082 152.992 77.1989 152.977 77.5343C152.954 78.1102 152.992 78.4664 153.702 78.3951C153.972 78.3684 154.488 78.2259 154.353 78.8374C154.285 79.1343 154.236 79.5498 153.749 79.5172C153.652 79.5172 153.552 79.5172 153.455 79.5172C153.024 79.4727 152.675 79.532 152.678 80.093C152.678 80.7105 153.153 80.3899 153.417 80.4671C153.681 80.5442 154.212 80.3216 154.08 80.9183C154.016 81.2151 153.972 81.693 153.493 81.604C152.481 81.4169 152.238 82.07 152.179 82.8329C152.135 83.3939 151.947 83.6759 151.384 83.5839C150.765 83.4859 151.158 82.9308 150.988 82.6459C150.789 82.3134 151.631 81.7227 150.786 81.6514C150.199 81.604 150.384 82.1917 150.378 82.542C150.378 83.1356 150.275 83.6789 149.519 83.5987C148.609 83.5037 149.161 82.9249 149.225 82.5153C149.293 81.9988 149.334 81.5208 148.551 81.6247C148.207 81.6663 147.729 81.785 147.779 81.1053C147.82 80.568 148.122 80.5116 148.562 80.476C148.929 80.4552 149.521 80.7491 149.53 79.9862C149.53 79.2945 148.999 79.5795 148.683 79.5498C148.292 79.5142 148.02 79.4697 148.081 78.9561C148.134 78.5198 148.374 78.3387 148.759 78.3922C149.516 78.4901 149.982 78.318 149.844 77.4037C149.747 76.7506 150.088 76.5577 150.704 76.5903C151.654 76.6408 150.915 77.184 150.997 77.4987C151.079 77.8133 150.842 78.0686 151.158 78.3833Z" fill="white"/>
<path d="M98.5816 81.7259C98.5816 82.1681 98.5816 82.6164 98.5816 83.0557C98.5816 83.4178 98.1709 83.7176 98.0682 83.5277C97.4815 82.4056 96.9711 83.3852 96.4489 83.5277C95.2374 83.8661 94.1227 83.7117 93.2221 82.7915C92.1807 81.7288 91.9489 80.4168 92.301 78.9949C92.653 77.5731 93.4978 76.6826 94.9411 76.4362C95.4385 76.3308 95.9541 76.3537 96.4405 76.5025C96.927 76.6514 97.3686 76.9215 97.725 77.2881C98.0829 77.6503 98.6373 78.2083 98.1474 78.6625C97.6575 79.1166 97.4053 78.3894 97.106 78.0688C96.3844 77.2644 95.5161 77.0299 94.5128 77.4929C93.3658 78.0183 92.8026 80.1259 93.4333 81.5121C93.5569 81.7947 93.7372 82.0482 93.9627 82.2566C94.1882 82.465 94.454 82.6237 94.7432 82.7228C95.0325 82.8218 95.3389 82.859 95.6432 82.832C95.9474 82.805 96.2427 82.7144 96.5105 82.5659C97.1207 82.2394 97.5695 81.7615 97.4405 81.0609C97.3114 80.3604 96.6396 80.7997 96.223 80.6928C95.9297 80.6157 95.4369 80.7908 95.4134 80.307C95.3841 79.6539 95.9502 79.9329 96.2935 79.8676C96.4387 79.8512 96.5853 79.8512 96.7305 79.8676C98.9189 79.8914 98.5405 79.5797 98.5816 81.7259Z" fill="white"/>
<path d="M132.249 69.7567C132.361 70.4805 132.204 71.2206 131.809 71.8346C131.729 71.9249 131.67 72.0315 131.634 72.1473C131.599 72.2631 131.589 72.3852 131.604 72.5054C131.777 73.3959 131.792 73.3306 130.78 73.1436C130.093 73.0189 129.407 73.4405 128.673 73.3544C127.976 73.2759 127.321 72.972 126.808 72.4875C126.294 72.003 125.948 71.3639 125.822 70.665C125.529 68.7682 126.242 67.0406 127.614 66.4084C128.303 66.1044 129.07 66.035 129.801 66.2106C130.531 66.3862 131.186 66.7973 131.666 67.382C131.913 67.7193 132.092 68.1028 132.192 68.5103C132.292 68.9179 132.312 69.3415 132.249 69.7567ZM131.369 69.8398C131.369 68.2547 130.674 67.284 129.46 67.103C128.022 66.8922 127.283 67.3998 126.84 68.9523C126.456 70.288 127.06 71.888 128.142 72.3481C128.379 72.4622 128.638 72.5196 128.9 72.516C129.162 72.5124 129.42 72.4478 129.653 72.3273C129.765 72.262 129.002 71.7544 129.542 71.3893C129.994 71.0925 130.19 71.6683 130.533 71.7752C130.827 71.8672 130.856 71.5793 130.915 71.4457C131.155 70.9055 131.472 70.389 131.372 69.825L131.369 69.8398Z" fill="white"/>
<path d="M109.412 57.3969C109.412 59.2344 109.412 60.6117 109.412 61.992C109.412 62.369 109.506 62.8647 108.907 62.8469C108.377 62.8321 108.535 62.3601 108.532 62.0573C108.532 60.2763 108.514 58.5101 108.532 56.738C108.532 56.4411 108.33 55.9988 108.849 55.9038C109.034 55.8581 109.229 55.8797 109.4 55.9649C109.571 56.0501 109.707 56.1934 109.785 56.3699C110.717 57.8867 111.727 59.3383 112.932 61.1787C112.932 59.4362 112.932 58.0856 112.932 56.7261C112.932 56.3728 112.783 55.8949 113.422 55.8831C114.062 55.8712 113.979 56.3075 113.982 56.6934C113.982 58.4181 113.982 60.1397 113.982 61.8644C113.982 62.2503 114.068 62.7044 113.569 62.8439C113.07 62.9835 112.745 62.6866 112.489 62.2799C111.551 60.7779 110.597 59.27 109.412 57.3969Z" fill="white"/>
<path d="M119.093 71.1934C119.093 69.7508 119.093 68.3735 119.093 66.9962C119.093 66.6518 119.066 66.2837 119.582 66.2927C120.099 66.3016 120.081 66.6667 120.081 67.011C120.081 68.8296 120.081 70.6492 120.081 72.4699C120.081 72.7875 120.19 73.203 119.711 73.301C119.183 73.4108 118.905 73.0487 118.664 72.6717C117.784 71.3181 116.936 69.9556 116.074 68.5991C115.983 68.4566 115.872 68.323 115.546 67.8748C115.546 69.6558 115.546 71.0539 115.546 72.455C115.546 72.832 115.628 73.3307 115.024 73.2832C114.499 73.2387 114.695 72.7637 114.692 72.4728C114.671 70.6918 114.671 68.9216 114.692 67.1624C114.692 66.8655 114.496 66.4322 114.986 66.3075C115.42 66.1947 115.687 66.3965 115.927 66.7824C116.749 68.1093 117.62 69.4035 118.456 70.7215C118.608 70.9619 118.72 71.2053 119.093 71.1934Z" fill="white"/>
<path d="M151.622 62.9774C150.232 62.9774 149.061 62.2145 148.935 61.2141C148.9 60.9381 148.818 60.573 149.158 60.4513C149.498 60.3296 149.677 60.5373 149.801 60.8698C150.249 62.0572 151.2 62.2739 152.297 62.0572C152.843 61.9533 153.312 61.6475 153.347 61.0034C153.379 60.4097 152.986 60.1129 152.488 59.9674C151.948 59.7682 151.396 59.6045 150.836 59.4776C149.762 59.2847 149.003 58.7474 148.985 57.6016C148.97 56.6072 150.32 55.5237 151.502 55.6365C152.488 55.7286 153.538 55.9631 153.893 57.1474C153.963 57.376 154.227 57.7411 153.828 57.8955C153.756 57.9389 153.676 57.9654 153.593 57.973C153.509 57.9806 153.425 57.9692 153.347 57.9395C153.269 57.9099 153.198 57.8628 153.14 57.8017C153.082 57.7406 153.039 57.6672 153.013 57.5868C152.564 56.6013 151.816 56.2747 150.76 56.723C150.553 56.7854 150.374 56.9175 150.252 57.0973C150.129 57.2771 150.072 57.4938 150.088 57.7114C150.088 58.2398 150.44 58.3882 150.792 58.504C151.379 58.694 152.006 58.7771 152.596 58.9671C153.62 59.2966 154.471 59.7982 154.324 61.1162C154.177 62.4341 153.203 62.6983 152.203 62.9625C152.011 62.9928 151.816 62.9978 151.622 62.9774Z" fill="white"/>
<path d="M98.6897 62.9742C97.5427 62.9742 96.6099 62.5883 96.1053 61.4603C95.9381 61.0922 95.7768 60.6737 96.2579 60.46C96.739 60.2462 96.8182 60.6826 96.956 60.9943C97.4459 62.1044 98.3876 62.241 99.4026 62.0748C99.6724 62.0587 99.925 61.935 100.105 61.7308C100.285 61.5265 100.377 61.2585 100.362 60.9854C100.377 60.8642 100.368 60.7412 100.335 60.6237C100.302 60.5062 100.246 60.3965 100.171 60.3013C100.095 60.206 100.002 60.1271 99.8953 60.0692C99.789 60.0113 99.6723 59.9756 99.5522 59.9642C99.0388 59.8455 98.5431 59.6318 98.0297 59.5279C96.8416 59.2845 96.0027 58.771 96.2491 57.355C96.4837 55.9925 97.6366 55.7135 98.6545 55.6809C99.5727 55.6512 100.62 55.9183 100.987 57.0819C101.081 57.3788 101.471 57.7083 100.946 57.922C100.868 57.9633 100.782 57.9864 100.694 57.9896C100.606 57.9927 100.519 57.9759 100.438 57.9403C100.358 57.9046 100.286 57.8512 100.229 57.7838C100.171 57.7164 100.13 57.6368 100.107 57.551C99.7517 56.5625 99.0095 56.4408 98.1294 56.6337C97.6249 56.7435 97.1937 56.9988 97.1526 57.5658C97.1115 58.1328 97.5545 58.4118 98.0326 58.5632C98.3986 58.6826 98.7707 58.7817 99.1474 58.86C100.376 59.0886 101.465 59.5279 101.477 61.0121C101.497 62.1846 100.277 62.9772 98.6897 62.9742Z" fill="white"/>
<path d="M90.1061 59.3681C90.1061 55.8743 90.1061 55.8536 93.5383 55.904C94.0311 55.904 94.9464 55.4973 94.9728 56.2869C95.008 57.1775 94.0722 56.6432 93.5794 56.7589C93.1909 56.8241 92.7945 56.8241 92.406 56.7589C91.6022 56.6728 91.2121 56.8183 91.2033 57.8246C91.2033 58.8902 91.7166 58.7923 92.4383 58.8783C93.2039 58.9704 94.5768 58.3203 94.6061 59.3236C94.6325 60.1577 93.2215 59.6531 92.4705 59.6858C91.6139 59.7243 91.2179 59.8075 91.2003 60.8731C91.1769 62.0605 91.787 61.9744 92.5585 61.9536C93.1892 61.9358 93.8229 61.9536 94.4565 61.9536C94.7499 61.9536 95.0432 62.0159 95.0432 62.4256C95.045 62.4869 95.0336 62.5478 95.0098 62.6042C94.9861 62.6606 94.9506 62.7111 94.9057 62.7523C94.8608 62.7935 94.8076 62.8244 94.7498 62.8428C94.6921 62.8612 94.631 62.8667 94.5709 62.859C93.2567 62.859 91.9308 62.8797 90.6342 62.859C90.0768 62.859 90.0915 62.4167 90.0944 62.013C90.112 61.1492 90.1091 60.2586 90.1061 59.3681Z" fill="white"/>
<path d="M100.623 80.0455V79.7487C100.623 76.2222 100.743 76.1183 104.225 76.5992C105.469 76.7714 106.434 78.0211 105.786 78.9977C105.138 79.9742 105.46 80.7787 105.669 81.6692C105.742 81.8509 105.793 82.0415 105.818 82.2362C105.798 82.6992 106.294 83.4235 105.507 83.5393C104.815 83.6372 104.786 82.9189 104.742 82.3697C104.705 82.0381 104.589 81.7204 104.406 81.4434C104.222 81.1665 103.974 80.9384 103.685 80.7786C103.395 80.6187 103.072 80.5317 102.742 80.525C102.413 80.5183 102.086 80.5921 101.791 80.7401C101.497 80.8796 101.518 81.1022 101.515 81.3338C101.515 81.8265 101.515 82.3193 101.515 82.8179C101.515 83.1504 101.579 83.563 101.078 83.5868C100.529 83.6135 100.641 83.1652 100.635 82.8536C100.611 81.9274 100.623 80.9805 100.623 80.0455ZM102.905 77.4868C102.157 77.3829 101.395 77.2701 101.459 78.7157C101.509 79.7932 101.92 79.903 102.753 79.8347C103.668 79.7694 104.73 79.9416 104.806 78.5791C104.862 77.2671 103.891 77.4511 102.905 77.4749V77.4868Z" fill="white"/>
<path d="M117.996 62.9622C116.822 62.9948 115.922 62.5674 115.417 61.4631C115.268 61.1307 115.05 60.6825 115.564 60.4687C115.992 60.2936 116.13 60.6735 116.271 60.9971C116.755 62.1043 117.694 62.2349 118.714 62.0806C118.959 62.0669 119.19 61.964 119.364 61.7909C119.539 61.6178 119.646 61.3863 119.665 61.1396C119.724 60.5192 119.533 60.1125 118.867 59.973C118.307 59.8543 117.773 59.593 117.212 59.4892C115.942 59.2576 115.315 58.5986 115.564 57.248C115.737 56.313 117.078 55.4314 118.183 55.6629C119.005 55.8351 119.958 55.9597 120.263 57.0135C120.348 57.3104 120.783 57.6369 120.325 57.904C119.961 58.1059 119.586 57.9901 119.377 57.527C118.905 56.4733 118.119 56.3605 117.124 56.7553C116.94 56.8129 116.778 56.9264 116.66 57.0804C116.542 57.2344 116.474 57.4214 116.464 57.6161C116.415 58.0851 116.758 58.3463 117.116 58.5066C117.562 58.6786 118.024 58.8049 118.494 58.8836C119.712 59.13 120.809 59.5663 120.803 61.0476C120.797 62.2052 119.6 62.9711 117.996 62.9622Z" fill="white"/>
<path d="M135.828 76.5846C136.266 76.5579 136.705 76.5579 137.143 76.5846C137.518 76.6321 138.184 76.2878 138.193 76.9705C138.207 77.769 137.48 77.4098 137.066 77.4484C136.481 77.5039 135.892 77.5039 135.306 77.4484C134.323 77.3534 134.541 78.0421 134.497 78.5942C134.45 79.2265 134.541 79.6539 135.333 79.556C135.82 79.4959 136.312 79.4959 136.799 79.556C137.228 79.6064 137.996 79.2591 137.999 79.9419C137.999 80.7849 137.181 80.2951 136.732 80.396C136.393 80.4466 136.049 80.4466 135.711 80.396C134.957 80.3366 134.438 80.3752 134.476 81.435C134.508 82.373 134.722 82.7796 135.705 82.6668C136.389 82.6204 137.075 82.6204 137.759 82.6668C138.075 82.6668 138.345 82.7915 138.319 83.1715C138.301 83.2951 138.237 83.4068 138.138 83.4824C138.04 83.5579 137.916 83.5913 137.794 83.5752C136.527 83.5752 135.259 83.5752 133.98 83.5752C133.555 83.5752 133.417 83.2783 133.42 82.8806C133.42 81.0105 133.441 79.1404 133.42 77.2703C133.42 76.638 133.713 76.5341 134.227 76.5579C134.74 76.5816 135.292 76.5846 135.828 76.5846Z" fill="white"/>
<path d="M151.543 73.3487C151.027 73.4029 150.508 73.2934 150.056 73.0354C149.605 72.7775 149.244 72.3839 149.023 71.9091C148.879 71.6122 148.73 71.1848 149.123 70.9978C149.454 70.8375 149.695 71.0393 149.868 71.443C150.317 72.482 151.258 72.5384 152.215 72.4612C152.484 72.4605 152.745 72.3619 152.949 72.1832C153.153 72.0045 153.287 71.7577 153.326 71.4875C153.438 70.8939 153.062 70.5584 152.564 70.3981C151.836 70.1666 151.097 70.0123 150.352 69.7807C149.536 69.5225 148.976 68.9169 148.985 68.0769C148.994 67.2368 149.572 66.6342 150.331 66.2958C151.581 65.7675 153.359 66.2543 153.816 67.2695C153.94 67.5663 154.265 68.0145 153.834 68.255C153.523 68.4271 153.174 68.3796 152.954 67.8305C152.661 67.0231 151.88 66.94 151.106 67.0528C150.607 67.124 150.146 67.216 150.079 67.8691C150.012 68.5221 150.325 68.7774 150.859 68.911C151.276 69.0149 151.692 69.1158 152.112 69.2078C153.64 69.5314 154.441 70.3239 154.341 71.4311C154.253 72.5948 153.191 73.3487 151.543 73.3487Z" fill="white"/>
<path d="M125.238 80.0932C125.238 82.3462 124 83.6849 121.97 83.6553C119.984 83.6315 118.77 82.2067 118.764 79.9685C118.758 77.7303 120.063 76.4391 122.081 76.353C124 76.2877 125.247 77.8758 125.238 80.0932ZM124.358 80.0724C124.373 78.511 123.346 77.2317 122.052 77.2049C120.758 77.1782 119.705 78.4368 119.688 80.0219C119.67 81.6071 120.706 82.833 122.008 82.8419C123.349 82.8508 124.334 81.6932 124.346 80.0724H124.358Z" fill="white"/>
<path d="M142.798 83.6638C141.138 83.6638 139.965 82.9128 139.865 81.9243C139.835 81.6512 139.747 81.2861 140.111 81.1733C140.428 81.0754 140.604 81.2683 140.745 81.5978C141.296 82.892 142.332 83.0494 143.511 82.6427C143.728 82.5949 143.922 82.4716 144.059 82.2943C144.195 82.117 144.266 81.8968 144.259 81.672C144.258 81.4734 144.194 81.2802 144.078 81.1202C143.962 80.9602 143.798 80.8417 143.611 80.7815C142.998 80.5206 142.361 80.3218 141.71 80.1878C140.537 79.9771 139.827 79.3597 139.95 78.1515C140.056 77.0918 141.593 76.1449 142.728 76.3705C143.579 76.5426 144.456 76.8128 144.781 77.7567C144.866 77.9853 145.154 78.4484 144.676 78.6265C144.356 78.7452 144.124 78.665 143.913 78.2346C143.444 77.2758 142.643 76.9938 141.613 77.4539C141.436 77.5173 141.283 77.6365 141.177 77.7941C141.072 77.9517 141.019 78.1394 141.027 78.3296C141.002 78.5254 141.052 78.7233 141.167 78.8831C141.281 79.043 141.451 79.1528 141.643 79.1905C142.229 79.3745 142.86 79.4576 143.452 79.6416C144.626 80.0068 145.462 80.645 145.142 82.0639C144.822 83.4827 143.655 83.5392 142.798 83.6638Z" fill="white"/>
<path d="M142.226 69.7751C142.226 66.2605 142.226 66.2605 145.69 66.2694C145.933 66.2694 146.177 66.2694 146.42 66.2694C146.737 66.2902 147.18 66.1774 147.133 66.7265C147.101 67.1332 146.743 67.0916 146.461 67.0976C145.828 67.0976 145.194 67.1273 144.561 67.0976C143.815 67.056 143.326 67.0649 143.317 68.1276C143.308 69.1903 143.783 69.315 144.616 69.2556C145.105 69.2212 145.595 69.2212 146.083 69.2556C146.376 69.2734 146.852 69.0923 146.814 69.6771C146.778 70.2144 146.332 70.0452 146.03 70.063C145.593 70.1104 145.153 70.1104 144.716 70.063C143.663 69.9057 143.249 70.2352 143.331 71.3928C143.387 72.1973 143.534 72.5357 144.379 72.4496C145.11 72.408 145.842 72.408 146.573 72.4496C146.866 72.4496 147.192 72.4258 147.16 72.88C147.16 72.9414 147.147 73.0021 147.122 73.0581C147.097 73.1142 147.061 73.1644 147.016 73.2055C146.971 73.2467 146.918 73.2778 146.86 73.2968C146.803 73.3159 146.742 73.3226 146.681 73.3164C145.364 73.3164 144.041 73.3371 142.733 73.3164C142.146 73.3164 142.24 72.8177 142.237 72.4407C142.217 71.5383 142.226 70.6626 142.226 69.7751Z" fill="white"/>
<path d="M91.8639 69.7572C91.8639 66.2367 91.8639 66.2367 95.3343 66.2783H96.0647C96.3375 66.2783 96.5428 66.3792 96.5428 66.6879C96.5428 66.9966 96.3404 67.1005 96.0676 67.1005C95.3372 67.1005 94.6009 67.1569 93.8792 67.1005C93.0784 67.0293 92.8907 67.3677 92.9141 68.1127C92.9376 68.8103 92.9141 69.3802 93.8822 69.2734C94.566 69.2298 95.2518 69.2298 95.9356 69.2734C96.1674 69.2734 96.4578 69.2466 96.4871 69.588C96.5194 69.9798 96.2466 70.0808 95.9298 70.0867C95.4428 70.0867 94.9558 70.0867 94.463 70.0867C93.6768 70.0867 92.9083 69.8166 92.8789 71.2295C92.8467 72.7553 93.715 72.4317 94.5334 72.4466C95.0673 72.4466 95.6041 72.4466 96.138 72.4466C96.4108 72.4466 96.7717 72.405 96.7511 72.8473C96.7537 72.9105 96.7431 72.9735 96.7202 73.0323C96.6973 73.0911 96.6625 73.1445 96.618 73.1889C96.5736 73.2333 96.5205 73.2679 96.462 73.2903C96.4036 73.3128 96.3412 73.3226 96.2788 73.3193C94.9646 73.3193 93.6387 73.346 92.3392 73.3193C91.7525 73.3044 91.8727 72.7939 91.8698 72.4287C91.8551 71.5174 91.8639 70.6477 91.8639 69.7572Z" fill="white"/>
<path d="M106.781 69.7572C106.781 68.7746 106.781 67.7921 106.781 66.8125C106.781 66.575 106.807 66.3287 107.145 66.296C107.55 66.2604 107.638 66.4979 107.64 66.8274C107.664 67.0722 107.664 67.3187 107.64 67.5635C107.376 68.9735 107.904 69.4188 109.327 69.303C111.087 69.1605 111.087 69.2703 111.208 67.1628C111.225 66.8452 110.952 66.3079 111.63 66.299C112.243 66.299 112.146 66.768 112.149 67.139C112.149 68.9062 112.149 70.6724 112.149 72.4376C112.149 72.8087 112.234 73.3014 111.639 73.2955C110.993 73.2955 111.225 72.7493 111.208 72.405C111.067 69.9976 111.073 70.0303 108.697 70.0303C107.913 70.0303 107.523 70.1876 107.638 71.0632C107.674 71.6019 107.674 72.1424 107.638 72.681C107.638 72.9779 107.594 73.2747 107.189 73.2895C106.784 73.3044 106.784 72.9571 106.781 72.681C106.775 71.7133 106.781 70.7308 106.781 69.7572Z" fill="white"/>
<path d="M112.002 80.1464C112.102 81.3486 112.439 82.4765 113.815 82.7674C115.053 83.0316 115.868 82.4291 116.161 81.1794C116.167 81.1064 116.19 81.0357 116.227 80.9728C116.264 80.9099 116.314 80.8563 116.375 80.8162C116.436 80.7762 116.504 80.7506 116.576 80.7415C116.648 80.7324 116.721 80.74 116.789 80.7638C117.358 80.8706 117.068 81.2833 117.027 81.5771C116.866 82.6932 116.065 83.2869 115.117 83.557C114.014 83.8687 112.891 83.75 112.025 82.8387C110.852 81.6068 110.82 80.1078 111.248 78.6058C111.408 78.0068 111.748 77.4729 112.221 77.0783C112.694 76.6836 113.277 76.4477 113.888 76.4032C115.035 76.2696 116.085 76.6169 116.754 77.6796C116.921 77.9468 117.253 78.2733 116.877 78.5701C116.584 78.7957 116.241 78.68 116.021 78.3267C115.396 77.3264 114.554 76.9761 113.433 77.454C112.266 77.9675 112.046 78.9827 112.002 80.1464Z" fill="white"/>
<path d="M101.726 73.349C100.087 73.349 98.9396 72.4585 98.6169 71.0812C98.1358 69.0271 98.7695 67.1896 100.213 66.4505C101.43 65.8301 103.07 66.1002 103.932 67.0679C104.226 67.3915 104.692 67.8338 104.355 68.1751C103.88 68.6619 103.563 68.0772 103.225 67.721C102.093 66.5336 100.383 66.872 99.7053 68.4037C99.1332 69.6979 99.494 71.4641 100.465 72.132C101.571 72.8889 102.859 72.5268 103.481 71.2415C103.671 70.8437 103.715 70.2678 104.317 70.5172C104.918 70.7665 104.466 71.3721 104.358 71.6392C104.174 72.1827 103.814 72.6474 103.336 72.9578C102.859 73.2682 102.291 73.4061 101.726 73.349Z" fill="white"/>
<path d="M90.9048 83.2218C90.8461 83.3109 90.7875 83.5008 90.7053 83.5187C90.4795 83.5543 90.1509 83.6018 90.0306 83.4801C89.7939 83.2402 89.6308 82.936 89.5613 82.6044C89.3765 81.5951 88.7458 81.4645 87.8716 81.5031C86.9974 81.5417 86.1115 81.3903 85.9091 82.643C85.8314 82.9685 85.6718 83.2682 85.4456 83.5127C85.3605 83.6136 85.0672 83.6047 84.9 83.5543C84.5861 83.4593 84.6682 83.2574 84.7709 82.9932C85.5189 81.0489 86.2376 79.0928 86.9769 77.1455C87.0224 76.9786 87.1214 76.8318 87.2584 76.728C87.3955 76.6243 87.5626 76.5697 87.7337 76.5726C87.9036 76.5566 88.0737 76.6 88.2157 76.6956C88.3578 76.7912 88.463 76.9333 88.514 77.098C89.2591 79.0423 89.9808 80.9925 90.7288 82.9368C90.7805 83.0361 90.8393 83.1313 90.9048 83.2218ZM88.6988 80.6571C88.5477 79.6387 88.1976 78.6609 87.6692 77.7807C87.2996 78.8642 87.0003 79.7399 86.6894 80.6571H88.6988Z" fill="white"/>
<path d="M136.348 58.6198C136.348 57.9311 136.348 57.2425 136.348 56.5419C136.348 56.1768 136.348 55.8355 136.867 55.8889C137.304 55.9364 137.222 56.2778 137.222 56.5479C137.222 57.7352 137.192 58.9226 137.239 60.0892C137.286 61.2557 137.759 62.0839 139.046 62.1195C140.064 62.1492 140.745 61.7515 140.748 60.6027C140.748 59.3233 140.748 58.0439 140.762 56.7675C140.762 56.3401 140.645 55.8503 141.367 55.877C141.995 55.8978 141.883 56.3252 141.886 56.6993C141.886 57.9282 141.936 59.1601 141.886 60.386C141.798 62.167 140.804 62.9804 138.87 62.9299C137.207 62.8854 136.392 62.0156 136.359 60.2316C136.339 59.7003 136.348 59.1601 136.348 58.6198Z" fill="white"/>
<path d="M139.861 69.1633C139.861 69.6085 139.861 70.0538 139.861 70.4931C139.844 72.4196 139.075 73.2804 137.336 73.3339C135.4 73.3932 134.417 72.5205 134.332 70.5881C134.279 69.4572 134.317 68.3232 134.332 67.1923C134.332 66.7678 134.211 66.2543 134.918 66.2839C135.625 66.3136 135.432 66.8776 135.441 67.2576C135.467 68.3381 135.485 69.4245 135.441 70.505C135.391 71.7547 135.825 72.4641 137.171 72.476C138.518 72.4879 138.931 71.6538 138.964 70.508C138.996 69.3622 138.964 68.2431 138.978 67.1121C138.978 66.7589 138.829 66.2394 139.483 66.2988C140.011 66.3493 139.844 66.7945 139.853 67.0973C139.879 67.7859 139.861 68.4746 139.861 69.1633Z" fill="white"/>
<path d="M84.548 59.2697C84.548 58.4356 84.548 57.5985 84.548 56.7644C84.548 56.337 84.4307 55.8501 85.1553 55.8739C85.8798 55.8976 85.695 56.423 85.7009 56.8178C85.7185 58.1447 85.7596 59.4894 85.7009 60.7985C85.6569 61.6712 85.8652 62.0808 86.8098 61.9591C87.3957 61.9154 87.9839 61.9154 88.5699 61.9591C88.8632 61.9591 89.18 61.9769 89.2182 62.3747C89.2563 62.7724 88.9747 62.8793 88.6608 62.8823C87.4874 62.8823 86.3199 62.8823 85.1582 62.8823C84.6184 62.8823 84.5715 62.5082 84.5715 62.0749C84.5568 61.1487 84.548 60.2048 84.548 59.2697Z" fill="white"/>
<path d="M86.8887 70.1758C86.8593 69.6865 86.8593 69.1958 86.8887 68.7065C87.0383 67.5191 86.7919 66.8037 85.3926 67.0917C85.0993 67.151 84.6328 67.1926 84.5947 66.7087C84.5507 66.1744 85.0171 66.2783 85.3281 66.2753C86.6833 66.2753 88.0415 66.2753 89.3997 66.2753C89.7283 66.2753 90.139 66.2189 90.0803 66.7562C90.0334 67.1748 89.6667 67.151 89.4085 67.0946C87.9037 66.7651 87.9125 67.6883 87.9594 68.7629C88.0093 69.9502 87.9799 71.1138 87.9594 72.2893C87.9594 72.693 88.1178 73.2718 87.4548 73.3015C86.6305 73.3401 86.9121 72.6574 86.8887 72.2359C86.8593 71.5383 86.8887 70.8615 86.8887 70.1758Z" fill="white"/>
<path d="M123.513 59.7953C123.513 59.4035 123.486 59.0087 123.513 58.608C123.615 57.4473 123.604 56.4202 121.955 56.7557C121.635 56.824 121.395 56.6815 121.404 56.2807C121.412 55.88 121.732 55.8741 122.011 55.8741C123.419 55.8741 124.83 55.8741 126.238 55.8741C126.499 55.8741 126.86 55.7939 126.898 56.2243C126.914 56.2977 126.912 56.3741 126.891 56.4462C126.87 56.5183 126.83 56.5837 126.777 56.6361C126.724 56.6885 126.658 56.7262 126.586 56.7456C126.515 56.765 126.439 56.7654 126.367 56.7468C124.223 56.2807 124.63 57.7976 124.627 58.9968C124.627 59.9764 124.627 60.9589 124.627 61.9385C124.627 62.3778 124.707 62.8884 124.02 62.8498C123.457 62.8142 123.504 62.3897 123.51 61.9889C123.519 61.2676 123.513 60.5315 123.513 59.7953Z" fill="white"/>
<path d="M132.05 59.6999C132.02 59.2057 132.02 58.71 132.05 58.2157C132.182 57.1412 131.903 56.5356 130.68 56.7493C130.387 56.7998 129.947 56.9037 129.903 56.3724C129.847 55.7015 130.363 55.8796 130.703 55.8766C132.015 55.8588 133.329 55.8559 134.64 55.8766C134.934 55.8766 135.382 55.7193 135.412 56.2625C135.441 56.8057 135.03 56.8235 134.708 56.7493C132.948 56.3516 133.006 57.4647 133.056 58.664C133.103 59.7919 133.071 60.9229 133.056 62.0509C133.056 62.3804 133.135 62.8078 132.64 62.8375C132.144 62.8672 132.032 62.4724 132.035 62.042C132.056 61.2702 132.05 60.4865 132.05 59.6999Z" fill="white"/>
<path d="M127.268 79.903C127.268 79.0125 127.268 78.122 127.268 77.2493C127.268 76.9732 127.203 76.6556 127.637 76.5992C128.163 76.5457 128.151 76.896 128.151 77.2582C128.151 78.6325 128.242 80.0188 128.124 81.3842C128.022 82.5538 128.471 82.8298 129.506 82.7081C130.137 82.6591 130.77 82.6591 131.401 82.7081C131.648 82.7081 131.897 82.8239 131.882 83.1356C131.88 83.1971 131.865 83.2575 131.839 83.313C131.812 83.3686 131.775 83.4181 131.729 83.4587C131.683 83.4992 131.63 83.5299 131.572 83.5488C131.514 83.5678 131.453 83.5746 131.392 83.569C130.178 83.569 128.96 83.5897 127.746 83.569C127.133 83.569 127.274 83.0614 127.268 82.6992C127.256 81.7701 127.265 80.8351 127.268 79.903Z" fill="white"/>
<path d="M145.121 59.7569C145.099 59.3615 145.099 58.965 145.121 58.5696C145.265 57.3555 145.142 56.4234 143.537 56.744C143.244 56.8064 142.804 56.842 142.816 56.2988C142.827 55.7556 143.273 55.8951 143.567 55.8921C144.881 55.8743 146.207 55.8713 147.512 55.8921C147.806 55.8921 148.26 55.6962 148.301 56.2424C148.336 56.7381 147.943 56.8123 147.603 56.744C146.045 56.4472 145.881 57.2813 145.984 58.5488C146.081 59.7688 146.004 61.0037 146.001 62.2355C146.001 62.5324 145.987 62.8292 145.57 62.847C145.154 62.8648 145.118 62.5502 145.118 62.2533C145.121 61.4459 145.121 60.594 145.121 59.7569Z" fill="white"/>
<path d="M107.969 80.0252C107.969 79.1346 107.969 78.2649 107.969 77.3833C107.969 76.9915 107.922 76.5996 108.518 76.5759C109.113 76.5521 109.122 76.8905 109.104 77.321C109.104 79.1277 109.104 80.9365 109.104 82.7472C109.104 83.1568 109.104 83.5724 108.559 83.5872C107.896 83.605 107.954 83.1063 107.951 82.6641L107.969 80.0252Z" fill="white"/>
<path d="M122.595 69.6442C122.595 68.7537 122.595 67.8839 122.595 67.0023C122.595 66.6699 122.545 66.2929 123.064 66.2721C123.583 66.2513 123.733 66.5244 123.73 66.9934C123.73 68.8556 123.73 70.7158 123.73 72.574C123.73 73.0312 123.61 73.3428 123.079 73.3132C122.548 73.2835 122.595 72.9332 122.592 72.5829L122.595 69.6442Z" fill="white"/>
<path d="M128.949 59.4544C128.949 60.3449 128.949 61.2117 128.949 62.0903C128.949 62.5475 128.814 62.8681 128.312 62.8562C127.811 62.8443 127.858 62.4495 127.858 62.1052C127.858 60.2529 127.858 58.3977 127.858 56.5424C127.858 56.1743 127.884 55.8745 128.38 55.8805C128.876 55.8864 128.952 56.1268 128.949 56.5276C128.946 57.5012 128.949 58.4778 128.949 59.4544Z" fill="white"/>
<path d="M105.754 59.2935C105.754 58.3673 105.754 57.4382 105.754 56.5121C105.754 56.1084 105.868 55.859 106.326 55.8857C106.737 55.9095 106.76 56.1826 106.76 56.4794V62.1906C106.76 62.4874 106.734 62.808 106.355 62.8407C105.93 62.8793 105.769 62.624 105.769 62.2114C105.76 61.2467 105.757 60.2582 105.754 59.2935Z" fill="white"/>
</svg>
