<svg width="19" height="18" viewBox="0 0 19 18" fill="none" xmlns="http://www.w3.org/2000/svg">
<path fill-rule="evenodd" clip-rule="evenodd" d="M0.859375 1.42773C1.25633 1.42773 1.57812 1.74953 1.57812 2.14648V5.74023H5.17188C5.56883 5.74023 5.89062 6.06203 5.89062 6.45898C5.89062 6.85594 5.56883 7.17773 5.17188 7.17773H0.859375C0.46242 7.17773 0.140625 6.85594 0.140625 6.45898V2.14648C0.140625 1.74953 0.46242 1.42773 0.859375 1.42773Z" fill="#D4D4D4"/>
<path fill-rule="evenodd" clip-rule="evenodd" d="M7.81668 0.540731C9.48977 0.207933 11.224 0.378737 12.8 1.03154C14.376 1.68435 15.723 2.78984 16.6708 4.20821C17.6185 5.62658 18.1243 7.29414 18.1243 9C18.1243 10.7059 17.6185 12.3734 16.6708 13.7918C15.723 15.2102 14.376 16.3157 12.8 16.9685C11.224 17.6213 9.48977 17.7921 7.81668 17.4593C6.1436 17.1265 4.60677 16.305 3.40054 15.0988C3.11985 14.8181 3.11985 14.363 3.40054 14.0823C3.68123 13.8016 4.13632 13.8016 4.41701 14.0823C5.4222 15.0875 6.70289 15.7721 8.09712 16.0494C9.49136 16.3267 10.9365 16.1844 12.2499 15.6404C13.5632 15.0964 14.6858 14.1751 15.4755 12.9932C16.2653 11.8112 16.6868 10.4216 16.6868 9C16.6868 7.57845 16.2653 6.18882 15.4755 5.00684C14.6858 3.82486 13.5632 2.90362 12.2499 2.35962C10.9365 1.81561 9.49136 1.67328 8.09712 1.95061C6.70289 2.22794 5.4222 2.91248 4.41701 3.91767L1.36761 6.96707C1.08692 7.24776 0.631831 7.24776 0.351142 6.96707C0.0704527 6.68638 0.0704526 6.2313 0.351142 5.95061L3.40054 2.90121C4.60677 1.69498 6.1436 0.873528 7.81668 0.540731Z" fill="#D4D4D4"/>
</svg>
