<svg width="40" height="40" viewBox="0 0 40 40" fill="none" xmlns="http://www.w3.org/2000/svg">
<path fill-rule="evenodd" clip-rule="evenodd" d="M13.3839 7.86612C13.872 8.35427 13.872 9.14573 13.3839 9.63388L6.76777 16.25L13.3839 22.8661C13.872 23.3543 13.872 24.1457 13.3839 24.6339C12.8957 25.122 12.1043 25.122 11.6161 24.6339L4.11612 17.1339C3.62796 16.6457 3.62796 15.8543 4.11612 15.3661L11.6161 7.86612C12.1043 7.37796 12.8957 7.37796 13.3839 7.86612Z" fill="#00746F"/>
<path fill-rule="evenodd" clip-rule="evenodd" d="M20.8839 7.86612C21.372 8.35427 21.372 9.14573 20.8839 9.63388L14.2678 16.25L20.8839 22.8661C21.372 23.3543 21.372 24.1457 20.8839 24.6339C20.3957 25.122 19.6043 25.122 19.1161 24.6339L11.6161 17.1339C11.128 16.6457 11.128 15.8543 11.6161 15.3661L19.1161 7.86612C19.6043 7.37796 20.3957 7.37796 20.8839 7.86612Z" fill="#95BE1B"/>
<path fill-rule="evenodd" clip-rule="evenodd" d="M11.25 16.25C11.25 15.5596 11.8096 15 12.5 15H20C24.3098 15 28.443 16.712 31.4905 19.7595C34.538 22.807 36.25 26.9402 36.25 31.25C36.25 31.9404 35.6904 32.5 35 32.5C34.3096 32.5 33.75 31.9404 33.75 31.25C33.75 27.6033 32.3013 24.1059 29.7227 21.5273C27.1441 18.9487 23.6467 17.5 20 17.5H12.5C11.8096 17.5 11.25 16.9404 11.25 16.25Z" fill="#95BE1B"/>
</svg>
