<svg width="34" height="26" viewBox="0 0 34 26" fill="none" xmlns="http://www.w3.org/2000/svg">
<g id="ArrowBendDoubleUpLeft">
<path id="Vector (Stroke)" fill-rule="evenodd" clip-rule="evenodd" d="M10.3839 0.866117C10.872 1.35427 10.872 2.14573 10.3839 2.63388L3.76777 9.25L10.3839 15.8661C10.872 16.3543 10.872 17.1457 10.3839 17.6339C9.89573 18.122 9.10427 18.122 8.61612 17.6339L1.11612 10.1339C0.627961 9.64573 0.627961 8.85427 1.11612 8.36612L8.61612 0.866117C9.10427 0.377961 9.89573 0.377961 10.3839 0.866117Z" fill="#FCFCFC"/>
<path id="Vector (Stroke)_2" fill-rule="evenodd" clip-rule="evenodd" d="M17.8839 0.866117C18.372 1.35427 18.372 2.14573 17.8839 2.63388L11.2678 9.25L17.8839 15.8661C18.372 16.3543 18.372 17.1457 17.8839 17.6339C17.3957 18.122 16.6043 18.122 16.1161 17.6339L8.61612 10.1339C8.12796 9.64573 8.12796 8.85427 8.61612 8.36612L16.1161 0.866117C16.6043 0.377961 17.3957 0.377961 17.8839 0.866117Z" fill="#FCFCFC"/>
<path id="Vector (Stroke)_3" fill-rule="evenodd" clip-rule="evenodd" d="M8.25 9.25C8.25 8.55964 8.80964 8 9.5 8H17C21.3098 8 25.443 9.71205 28.4905 12.7595C31.538 15.807 33.25 19.9402 33.25 24.25C33.25 24.9404 32.6904 25.5 32 25.5C31.3096 25.5 30.75 24.9404 30.75 24.25C30.75 20.6033 29.3013 17.1059 26.7227 14.5273C24.1441 11.9487 20.6467 10.5 17 10.5H9.5C8.80964 10.5 8.25 9.94036 8.25 9.25Z" fill="#FCFCFC"/>
</g>
</svg>
