<svg width="19" height="18" viewBox="0 0 19 18" fill="none" xmlns="http://www.w3.org/2000/svg">
<g id="ArrowCounterClockwise">
<path id="Vector (Stroke)" fill-rule="evenodd" clip-rule="evenodd" d="M0.859741 1.42763C1.2567 1.42763 1.57849 1.74942 1.57849 2.14638V5.74013H5.17224C5.5692 5.74013 5.89099 6.06192 5.89099 6.45888C5.89099 6.85583 5.5692 7.17763 5.17224 7.17763H0.859741C0.462787 7.17763 0.140991 6.85583 0.140991 6.45888V2.14638C0.140991 1.74942 0.462787 1.42763 0.859741 1.42763Z" fill="#00746F"/>
<path id="Vector (Stroke)_2" fill-rule="evenodd" clip-rule="evenodd" d="M7.81717 0.540731C9.49026 0.207933 11.2245 0.378737 12.8005 1.03154C14.3765 1.68435 15.7235 2.78984 16.6712 4.20821C17.619 5.62658 18.1248 7.29414 18.1248 9C18.1248 10.7059 17.619 12.3734 16.6712 13.7918C15.7235 15.2102 14.3765 16.3157 12.8005 16.9685C11.2245 17.6213 9.49026 17.7921 7.81717 17.4593C6.14408 17.1265 4.60725 16.305 3.40103 15.0988C3.12034 14.8181 3.12034 14.363 3.40103 14.0823C3.68172 13.8016 4.1368 13.8016 4.41749 14.0823C5.42268 15.0875 6.70337 15.7721 8.09761 16.0494C9.49185 16.3267 10.937 16.1844 12.2504 15.6404C13.5637 15.0964 14.6862 14.1751 15.476 12.9932C16.2658 11.8112 16.6873 10.4216 16.6873 9C16.6873 7.57845 16.2658 6.18882 15.476 5.00684C14.6862 3.82486 13.5637 2.90362 12.2504 2.35962C10.937 1.81561 9.49185 1.67328 8.09761 1.95061C6.70337 2.22794 5.42268 2.91248 4.41749 3.91767L1.3681 6.96707C1.08741 7.24776 0.63232 7.24776 0.35163 6.96707C0.070941 6.68638 0.0709409 6.2313 0.35163 5.95061L3.40103 2.90121C4.60726 1.69498 6.14408 0.873528 7.81717 0.540731Z" fill="#00746F"/>
</g>
</svg>
