<svg width="24" height="25" viewBox="0 0 24 25" fill="none" xmlns="http://www.w3.org/2000/svg">
<path fill-rule="evenodd" clip-rule="evenodd" d="M10.5004 2.75C10.9146 2.75 11.2504 3.08579 11.2504 3.5V10.9998L13.0496 9.65005C13.3163 9.45002 13.683 9.44998 13.9496 9.64995L15.7504 11.0002V3.5C15.7504 3.08579 16.0862 2.75 16.5004 2.75C16.9146 2.75 17.2504 3.08579 17.2504 3.5V12.5C17.2504 12.7841 17.0899 13.0438 16.8358 13.1708C16.5817 13.2979 16.2777 13.2705 16.0504 13.1L13.4998 11.1875L10.9504 13.1C10.7232 13.2704 10.4191 13.2979 10.165 13.1708C9.91088 13.0438 9.75037 12.7841 9.75037 12.5V3.5C9.75037 3.08579 10.0862 2.75 10.5004 2.75Z" fill="#52A944"/>
<path fill-rule="evenodd" clip-rule="evenodd" d="M4.62914 3.62868C5.19175 3.06607 5.95481 2.75 6.75046 2.75H19.5005C19.9147 2.75 20.2505 3.08579 20.2505 3.5V18.5C20.2505 18.9142 19.9147 19.25 19.5005 19.25H6.75046C6.35263 19.25 5.9711 19.408 5.6898 19.6893C5.40849 19.9706 5.25046 20.3522 5.25046 20.75C5.25046 21.1642 4.91467 21.5 4.50046 21.5C4.08624 21.5 3.75046 21.1642 3.75046 20.75V5.75C3.75046 4.95435 4.06653 4.19129 4.62914 3.62868ZM5.25046 18.1519C5.70264 17.8909 6.21929 17.75 6.75046 17.75H18.7505V4.25H6.75046C6.35263 4.25 5.9711 4.40804 5.6898 4.68934C5.40849 4.97064 5.25046 5.35218 5.25046 5.75V18.1519Z" fill="#00746F"/>
<path fill-rule="evenodd" clip-rule="evenodd" d="M4.50037 20C4.91458 20 5.25037 20.3358 5.25037 20.75H18.0004C18.4146 20.75 18.7504 21.0858 18.7504 21.5C18.7504 21.9142 18.4146 22.25 18.0004 22.25H4.50037C4.08615 22.25 3.75037 21.9142 3.75037 21.5V20.75C3.75037 20.3358 4.08615 20 4.50037 20Z" fill="#00746F"/>
</svg>
