<svg width="20" height="15" viewBox="0 0 20 15" fill="none" xmlns="http://www.w3.org/2000/svg">
<g id="Cardholder">
<path id="Vector (Stroke)" fill-rule="evenodd" clip-rule="evenodd" d="M2.5 1.5C2.08579 1.5 1.75 1.83579 1.75 2.25V12.75C1.75 13.1642 2.08579 13.5 2.5 13.5H17.5C17.9142 13.5 18.25 13.1642 18.25 12.75V2.25C18.25 1.83579 17.9142 1.5 17.5 1.5H2.5ZM0.25 2.25C0.25 1.00736 1.25736 0 2.5 0H17.5C18.7426 0 19.75 1.00736 19.75 2.25V12.75C19.75 13.9926 18.7426 15 17.5 15H2.5C1.25736 15 0.25 13.9926 0.25 12.75V2.25Z" fill="#00746F"/>
<path id="Vector (Stroke)_2" fill-rule="evenodd" clip-rule="evenodd" d="M0.25 6.75C0.25 6.33579 0.585786 6 1 6L6.32577 6C6.32582 6 6.32587 6 6.32592 6C6.67168 5.99997 7.00683 6.11948 7.27457 6.33828C7.54234 6.55712 7.72621 6.86181 7.79501 7.20072L7.06 7.34992L7.79482 7.19979C7.89865 7.70801 8.17484 8.16477 8.57667 8.4928C8.97849 8.82083 9.48129 9 10 9C10.5187 9 11.0215 8.82083 11.4233 8.4928C11.825 8.16487 12.1012 7.70829 12.2051 7.20026C12.274 6.86154 12.4578 6.55702 12.7254 6.33829C12.9932 6.11948 13.3283 5.99997 13.6741 6C13.6741 6 13.6742 6 13.6742 6L19 6C19.4142 6 19.75 6.33579 19.75 6.75C19.75 7.16421 19.4142 7.5 19 7.5H13.6748L13.6748 7.50005C13.5018 8.34697 13.0415 9.10813 12.3719 9.65478C11.7023 10.2014 10.8644 10.5 10 10.5C9.13559 10.5 8.2977 10.2014 7.62808 9.65478C6.95846 9.10813 6.49821 8.34697 6.32518 7.50005L6.32517 7.5H1C0.585786 7.5 0.25 7.16421 0.25 6.75Z" fill="#95BE1B"/>
<path id="Vector (Stroke)_3" fill-rule="evenodd" clip-rule="evenodd" d="M0.25 3.75C0.25 3.33579 0.585786 3 1 3H19C19.4142 3 19.75 3.33579 19.75 3.75C19.75 4.16421 19.4142 4.5 19 4.5H1C0.585786 4.5 0.25 4.16421 0.25 3.75Z" fill="#95BE1B"/>
</g>
</svg>
