<svg width="16" height="17" viewBox="0 0 16 17" fill="none" xmlns="http://www.w3.org/2000/svg">
<path fill-rule="evenodd" clip-rule="evenodd" d="M8 5C8.27614 5 8.5 5.22386 8.5 5.5V8.5C8.5 8.77614 8.27614 9 8 9C7.72386 9 7.5 8.77614 7.5 8.5V5.5C7.5 5.22386 7.72386 5 8 5Z" fill="#95BE1B"/>
<path fill-rule="evenodd" clip-rule="evenodd" d="M7.56707 8.25002C7.70514 8.01088 8.01094 7.92894 8.25008 8.06701L10.8482 9.56701C11.0873 9.70508 11.1692 10.0109 11.0312 10.25C10.8931 10.4892 10.5873 10.5711 10.3482 10.433L7.75008 8.93304C7.51094 8.79496 7.429 8.48917 7.56707 8.25002Z" fill="#95BE1B"/>
<path fill-rule="evenodd" clip-rule="evenodd" d="M14.0107 3.73224C14.2869 3.73224 14.5107 3.9561 14.5107 4.23224V6.73224C14.5107 7.00838 14.2869 7.23224 14.0107 7.23224H11.5107C11.2346 7.23224 11.0107 7.00838 11.0107 6.73224C11.0107 6.4561 11.2346 6.23224 11.5107 6.23224H13.5107V4.23224C13.5107 3.9561 13.7346 3.73224 14.0107 3.73224Z" fill="#00746F"/>
<path fill-rule="evenodd" clip-rule="evenodd" d="M8.97545 3.59608C8.00555 3.40315 7.00021 3.50217 6.08658 3.8806C5.17295 4.25904 4.39206 4.89991 3.84265 5.72215C3.29324 6.5444 3 7.5111 3 8.5C3 9.48891 3.29324 10.4556 3.84265 11.2779C4.39206 12.1001 5.17295 12.741 6.08658 13.1194C7.00021 13.4978 8.00555 13.5969 8.97545 13.4039C9.94536 13.211 10.8363 12.7348 11.5355 12.0355C11.7308 11.8403 12.0474 11.8403 12.2426 12.0355C12.4379 12.2308 12.4379 12.5474 12.2426 12.7426C11.4035 13.5818 10.3344 14.1532 9.17054 14.3847C8.00666 14.6162 6.80026 14.4974 5.7039 14.0433C4.60754 13.5892 3.67047 12.8201 3.01118 11.8334C2.35189 10.8467 2 9.68669 2 8.5C2 7.31331 2.35189 6.15328 3.01118 5.16658C3.67047 4.17989 4.60754 3.41085 5.7039 2.95673C6.80026 2.5026 8.00666 2.38378 9.17054 2.61529C10.3344 2.8468 11.4035 3.41825 12.2426 4.25736L14.364 6.37868C14.5592 6.57394 14.5592 6.89053 14.364 7.08579C14.1687 7.28105 13.8521 7.28105 13.6569 7.08579L11.5355 4.96447C10.8363 4.26521 9.94536 3.789 8.97545 3.59608Z" fill="#00746F"/>
</svg>
