<svg width="16" height="16" viewBox="0 0 16 16" fill="none" xmlns="http://www.w3.org/2000/svg">
<g clip-path="url(#clip0_177_17744)">
<path d="M12.1954 4.7435C12.4549 4.48392 12.4549 4.06307 12.1954 3.8035C11.9358 3.54392 11.5149 3.54392 11.2554 3.8035L7.9987 7.06016L4.74203 3.8035C4.48246 3.54392 4.06161 3.54392 3.80203 3.8035C3.54246 4.06307 3.54246 4.48392 3.80203 4.7435L7.0587 8.00016L3.80203 11.2568C3.54246 11.5164 3.54246 11.9373 3.80203 12.1968C4.0616 12.4564 4.48246 12.4564 4.74203 12.1968L7.9987 8.94016L11.2554 12.1968C11.5149 12.4564 11.9358 12.4564 12.1954 12.1968C12.4549 11.9373 12.4549 11.5164 12.1954 11.2568L8.9387 8.00016L12.1954 4.7435Z" fill="#00746F"/>
</g>
<defs>
<clipPath id="clip0_177_17744">
<rect width="16" height="16" fill="white"/>
</clipPath>
</defs>
</svg>
