<svg width="35" height="35" viewBox="0 0 35 35" fill="none" xmlns="http://www.w3.org/2000/svg">
<rect width="35" height="35" rx="2" fill="#00746F"/>
<path fill-rule="evenodd" clip-rule="evenodd" d="M19.2929 11.4999C19.4804 11.3124 19.7348 11.207 20 11.207C20.2652 11.207 20.5196 11.3124 20.7071 11.4999L20.3728 11.8342L20.7071 11.4999L23.5 14.2928C23.6875 14.4804 23.7929 14.7347 23.7929 14.9999C23.7929 15.2651 23.6875 15.5195 23.5 15.707L16 23.207C15.9071 23.2999 15.7969 23.3736 15.6756 23.4238C15.5543 23.4741 15.4242 23.4999 15.2929 23.4999H12.5C12.2348 23.4999 11.9804 23.3946 11.7929 23.207C11.6054 23.0195 11.5 22.7651 11.5 22.4999V19.707C11.5 19.5757 11.5259 19.4457 11.5761 19.3243C11.6264 19.203 11.7 19.0928 11.7929 18.9999L19.2929 11.4999ZM22.7929 14.9999L20 12.207L12.5 19.707L12.1464 19.3535L12.5 19.707L12.5 22.4999L15.2929 22.4999L22.7929 14.9999Z" fill="#FCFCFC"/>
<path fill-rule="evenodd" clip-rule="evenodd" d="M17.6464 13.1464C17.8417 12.9512 18.1583 12.9512 18.3536 13.1464L21.8536 16.6464C22.0488 16.8417 22.0488 17.1583 21.8536 17.3536C21.6583 17.5488 21.3417 17.5488 21.1464 17.3536L17.6464 13.8536C17.4512 13.6583 17.4512 13.3417 17.6464 13.1464Z" fill="#FCFCFC"/>
<path fill-rule="evenodd" clip-rule="evenodd" d="M11.6784 19.1782C11.8737 18.9829 12.1903 18.9829 12.3855 19.1782L15.8218 22.6144C16.017 22.8097 16.017 23.1263 15.8218 23.3215C15.6265 23.5168 15.3099 23.5168 15.1147 23.3215L11.6784 19.8853C11.4832 19.69 11.4832 19.3734 11.6784 19.1782Z" fill="#FCFCFC"/>
</svg>
