<svg width="49" height="48" viewBox="0 0 49 48" fill="none" xmlns="http://www.w3.org/2000/svg">
<path fill-rule="evenodd" clip-rule="evenodd" d="M24.5 7.5C15.3873 7.5 8 14.8873 8 24C8 33.1127 15.3873 40.5 24.5 40.5C33.6127 40.5 41 33.1127 41 24C41 14.8873 33.6127 7.5 24.5 7.5ZM5 24C5 13.2304 13.7304 4.5 24.5 4.5C35.2696 4.5 44 13.2304 44 24C44 34.7696 35.2696 43.5 24.5 43.5C13.7304 43.5 5 34.7696 5 24Z" fill="#00746F"/>
<path fill-rule="evenodd" clip-rule="evenodd" d="M21.5 22.5C21.5 21.6716 22.1716 21 23 21H24.5C25.3284 21 26 21.6716 26 22.5V31.5C26.8284 31.5 27.5 32.1716 27.5 33C27.5 33.8284 26.8284 34.5 26 34.5H24.5C23.6716 34.5 23 33.8284 23 33V24C22.1716 24 21.5 23.3284 21.5 22.5Z" fill="#00746F"/>
<path d="M24.5 18C25.7426 18 26.75 16.9926 26.75 15.75C26.75 14.5074 25.7426 13.5 24.5 13.5C23.2574 13.5 22.25 14.5074 22.25 15.75C22.25 16.9926 23.2574 18 24.5 18Z" fill="#00746F"/>
</svg>
