<svg width="34" height="32" viewBox="0 0 34 32" fill="none" xmlns="http://www.w3.org/2000/svg">
<g clip-path="url(#clip0_34_860)">
<path d="M31.5479 0H2.4521C1.09778 0 0 1.0332 0 2.30786V29.6921C0 30.9668 1.09778 32 2.4521 32H31.5479C32.9022 32 34 30.9668 34 29.6921V2.30786C34 1.0332 32.9022 0 31.5479 0ZM12.06 24.1875H7.91972V12.4641H12.06V24.1875ZM9.98999 10.8633H9.96301C8.57367 10.8633 7.67511 9.96314 7.67511 8.83813C7.67511 7.68774 8.60117 6.8125 10.0175 6.8125C11.4338 6.8125 12.3054 7.68774 12.3324 8.83813C12.3324 9.96314 11.4338 10.8633 9.98999 10.8633ZM26.989 24.1875H22.8492V17.9158C22.8492 16.3396 22.2497 15.2646 20.7517 15.2646C19.608 15.2646 18.9268 15.9897 18.6275 16.6897C18.518 16.9402 18.4913 17.2903 18.4913 17.6406V24.1875H14.3513C14.3513 24.1875 14.4055 13.564 14.3513 12.4641H18.4913V14.124C19.0415 13.3252 20.0259 12.189 22.2225 12.189C24.9464 12.189 26.989 13.8645 26.989 17.4653V24.1875Z" fill="white"/>
</g>
<defs>
<clipPath id="clip0_34_860">
<rect width="34" height="32" fill="white"/>
</clipPath>
</defs>
</svg>
