<svg width="19" height="14" viewBox="0 0 19 14" fill="none" xmlns="http://www.w3.org/2000/svg">
<path fill-rule="evenodd" clip-rule="evenodd" d="M5.1875 1.25C5.1875 0.853045 5.5093 0.53125 5.90625 0.53125H17.4062C17.8032 0.53125 18.125 0.853045 18.125 1.25C18.125 1.64695 17.8032 1.96875 17.4062 1.96875H5.90625C5.5093 1.96875 5.1875 1.64695 5.1875 1.25Z" fill="#D4D4D4"/>
<path fill-rule="evenodd" clip-rule="evenodd" d="M5.1875 7C5.1875 6.60305 5.5093 6.28125 5.90625 6.28125H17.4057C17.8027 6.28125 18.1244 6.60305 18.1244 7C18.1244 7.39695 17.8027 7.71875 17.4057 7.71875H5.90625C5.5093 7.71875 5.1875 7.39695 5.1875 7Z" fill="#D4D4D4"/>
<path fill-rule="evenodd" clip-rule="evenodd" d="M5.1875 12.75C5.1875 12.353 5.5093 12.0312 5.90625 12.0312H17.4057C17.8027 12.0312 18.1244 12.353 18.1244 12.75C18.1244 13.147 17.8027 13.4688 17.4057 13.4688H5.90625C5.5093 13.4688 5.1875 13.147 5.1875 12.75Z" fill="#D4D4D4"/>
<path d="M1.95312 2.32812C2.54856 2.32812 3.03125 1.84543 3.03125 1.25C3.03125 0.654568 2.54856 0.171875 1.95312 0.171875C1.35769 0.171875 0.875 0.654568 0.875 1.25C0.875 1.84543 1.35769 2.32812 1.95312 2.32812Z" fill="#D4D4D4"/>
<path d="M1.95312 8.07812C2.54856 8.07812 3.03125 7.59543 3.03125 7C3.03125 6.40457 2.54856 5.92188 1.95312 5.92188C1.35769 5.92188 0.875 6.40457 0.875 7C0.875 7.59543 1.35769 8.07812 1.95312 8.07812Z" fill="#D4D4D4"/>
<path d="M1.95312 13.8281C2.54856 13.8281 3.03125 13.3454 3.03125 12.75C3.03125 12.1546 2.54856 11.6719 1.95312 11.6719C1.35769 11.6719 0.875 12.1546 0.875 12.75C0.875 13.3454 1.35769 13.8281 1.95312 13.8281Z" fill="#D4D4D4"/>
</svg>
