<svg width="181" height="220" viewBox="0 0 181 220" fill="none" xmlns="http://www.w3.org/2000/svg">
<path d="M139.745 81.9873C146.595 79.3686 151.557 76.3555 155.155 73.3016V27.9956H118.449L115.286 52.4816L114.607 52.3932L116.182 40.1978C112.912 39.7834 109.609 39.7081 106.324 39.9734L106.168 38.0893C109.582 37.8127 113.015 37.8902 116.412 38.3206L117.77 28.016H101.953C102.788 33.8247 104.668 40.8712 108.361 49.2032C110.691 54.4335 112.556 59.8596 113.935 65.4184L114.525 65.5476L115.095 65.6769L115.639 65.8197L116.317 66.017L116.752 66.153C117.118 66.2754 117.492 66.4047 117.852 66.5475L116.229 70.7373C115.822 70.5832 115.408 70.4403 114.987 70.3088C115.706 74.1391 116.139 78.0177 116.283 81.9125L116.494 81.722L116.643 81.8853L116.297 82.1913C116.297 82.5314 116.297 82.8715 116.297 83.2048L117.18 82.579L117.302 82.7559L116.304 83.436C116.36 86.6686 116.183 89.901 115.774 93.108L116.664 93.8698C116.616 93.9242 116.569 93.9854 116.514 94.0398L115.747 93.3597C115.7 93.6998 115.659 94.0398 115.611 94.3731L115.896 94.6928L115.734 94.8356L115.564 94.6452C114.43 102.066 112.414 106.208 112.414 106.208C112.414 106.208 113.819 102.807 113.969 96.0055H113.914L113.351 94.9173L113.52 94.8288L113.975 95.6654C114.104 87.449 112.373 74.383 104.247 56.3994C99.0334 44.8366 97.4177 35.4231 97.5331 27.9888H33.2646V33.9539L71.7497 60.7253L71.1523 61.5891L33.2646 35.2394V160.043C35.3012 153.582 41.1802 149.161 48.5799 149.161C56.5023 149.161 62.6392 154.405 63.868 162.084H55.45C55.011 160.607 54.109 159.312 52.8777 158.39C51.6464 157.467 50.1513 156.967 48.6138 156.962C44.3369 156.962 41.1938 160.411 41.1938 165.124C41.1938 169.838 44.3369 173.198 48.6138 173.198C52.0082 173.198 54.6082 171.001 55.4568 167.634H63.9766C63.1009 173.701 59.3128 178.279 53.9972 180.122H73.5351V157.465H65.3208V149.984H90.1199V157.465H81.9055V180.108H94.3628V149.956H102.801V180.108H107.01V149.956H127.621V157.499H115.408V162.329H126.487V169.634H115.408V180.108H131.816V149.956H140.261V172.606H153.35V180.088H155.176V80.7154C151.247 84.0306 146.741 86.5901 141.884 88.2652C140.096 88.921 138.346 89.6772 136.643 90.5302L137.159 90.571V90.809L136.269 90.7274C132.896 92.4348 129.732 94.5278 126.84 96.9646L130.058 98.6106C129.667 99.3811 129.232 100.128 128.754 100.848L125.156 98.4677C123.753 99.763 122.429 101.142 121.192 102.596C122.281 101.72 123.265 100.72 124.124 99.6172L127.648 102.392C126.562 103.774 125.323 105.026 123.955 106.126L121.158 102.637C114.172 110.86 112.108 118.784 112.108 118.784C112.108 118.784 111.219 92.8768 139.745 81.9873ZM112.692 95.2233L113.14 96.366L112.93 96.4476L112.516 95.2914L112.692 95.2233ZM111.823 78.9401L112.041 78.9877L111.742 80.178L111.552 80.1304L111.823 78.9401ZM110.737 78.7565H110.954L110.798 79.974H110.608L110.737 78.7565ZM92.4891 33.7566L93.168 35.974C88.5791 37.4625 84.2041 39.5456 80.1541 42.1703L78.8846 40.2386C83.1172 37.4916 87.691 35.3124 92.4891 33.7566ZM68.5115 55.2091L58.5932 48.0061C60.0278 45.7225 61.8204 43.6853 63.9019 41.9731C65.7485 44.17 69.9235 48.353 72.1773 51.0737C70.821 52.3264 69.5929 53.7118 68.5115 55.2091ZM57.3509 132.197C54.87 129.71 52.7843 126.856 51.1664 123.736C54.2824 122.076 58.0976 120.077 61.9604 118.057C63.1143 120.022 64.4606 121.868 65.9793 123.566L57.3509 132.197ZM58.1859 105.671L56.0067 106.439C52.6771 96.9592 51.9135 86.7646 53.7936 76.8928L56.0678 77.3281C54.2578 86.806 54.9887 96.5953 58.1859 105.698V105.671ZM71.0844 142.91L81.7494 128.157C81.0705 127.701 80.4528 127.225 79.8214 126.735C72.9334 121.429 67.5717 114.388 64.2821 106.33L66.0607 105.589C69.2203 113.338 74.3738 120.109 80.9959 125.212C81.6204 125.688 82.245 126.151 82.8831 126.572L89.4681 117.458C86.7842 115.519 84.3907 113.206 82.3604 110.588L83.1479 109.983C85.1166 112.526 87.4393 114.773 90.0452 116.655L91.5726 114.547L92.1361 114.962L90.6154 117.063C92.5995 118.451 94.7277 119.618 96.9629 120.546L96.5895 121.464C94.2834 120.503 92.0871 119.297 90.0384 117.866L83.4669 126.96C87.6296 129.776 92.2126 131.911 97.0443 133.285L96.5012 135.136C91.4549 133.71 86.6676 131.487 82.3196 128.552L71.641 143.332L71.0844 142.91ZM71.0844 98.2093L69.7266 98.5561C67.9189 91.3385 68.0524 83.7699 70.1136 76.6208L71.4713 77.0221C69.4822 83.9369 69.3534 91.2557 71.0979 98.2365L71.0844 98.2093ZM89.4613 100.005C87.7027 96.8987 86.6938 93.4234 86.5151 89.8568L90.982 89.6188C91.1325 92.488 91.9483 95.2826 93.3648 97.7808L89.4613 100.005ZM94.1659 99.0935C94.9613 100.266 95.8859 101.345 96.9221 102.311L93.8876 105.596C92.604 104.405 91.4647 103.068 90.4932 101.61L94.1659 99.0935ZM96.9357 143.916C92.8056 142.899 88.8025 141.42 85.0012 139.509L86.0127 137.428C89.6579 139.257 93.4943 140.676 97.4516 141.658L96.9357 143.916ZM99.2371 147.208C99.2371 147.208 117.376 97.2298 89.0065 80.2801C69.2446 68.4928 48.3219 67.3365 33.3732 57.3652V50.2167C41.8862 54.5357 55.0291 59.5486 75.2798 64.5002C81.5503 65.936 87.505 68.511 92.8489 72.0977C93.1748 71.7576 93.5142 71.4243 93.8672 71.0978L93.9079 71.057C94.2745 70.7237 94.6411 70.3768 95.0213 70.098L97.825 73.594C97.5738 73.7981 97.3294 74.0089 97.0918 74.2198C96.8542 74.4306 96.6438 74.6347 96.413 74.8523C103.107 80.695 106.922 88.0952 108.687 96.0939L108.734 95.7471H108.918L108.823 96.6789C112.427 114.125 106.419 134.272 99.2506 147.236L99.2371 147.208ZM104.546 81.8921L104.403 82.0213L103.575 81.1167L103.738 80.967L104.546 81.8921ZM104.43 80.4229L104.614 80.2937L105.293 81.3071L105.136 81.4159L104.43 80.4229ZM103.86 82.5654L103.738 82.7083L102.808 81.9125C102.854 81.8527 102.904 81.7959 102.957 81.7424L103.86 82.5654ZM109.644 97.019V95.7947H109.834V97.019H109.61H109.644ZM147.803 98.3793L149.161 98.7602C147.933 102.883 146.088 106.795 143.689 110.364L142.562 109.568C144.867 106.128 146.643 102.361 147.83 98.3929L147.803 98.3793ZM155.04 119.975V123.79C149.942 130.166 143.551 135.384 136.29 139.101L135.244 137.026C143.117 133.018 149.915 127.175 155.067 119.988L155.04 119.975ZM135.638 91.5776L137.043 91.7613L137.009 91.9789L135.604 91.8021L135.638 91.5776ZM135.461 92.6931L136.86 92.938L136.819 93.176L135.421 92.9176L135.461 92.6931ZM135.244 93.8086L136.602 94.1147L136.554 94.3391L135.163 94.033L135.244 93.8086ZM134.973 94.9105L136.33 95.271L136.276 95.4954L134.918 95.1349L134.973 94.9105ZM134.66 95.9919L136.018 96.4204L135.943 96.6517L134.586 96.2096L134.66 95.9919ZM134.301 97.0666L135.658 97.5563L135.584 97.774L134.226 97.2842L134.301 97.0666ZM133.893 98.1276L135.204 98.665L135.115 98.8826L133.805 98.3385L133.893 98.1276ZM133.438 99.1615L134.728 99.76L134.626 99.9777L133.343 99.3655L133.438 99.1615ZM132.943 100.182L134.206 100.862L134.097 101.073L132.841 100.393L132.943 100.182ZM132.407 101.175L133.635 101.855L133.52 102.059L132.291 101.379L132.407 101.175ZM131.823 102.147L133.058 102.909L132.929 103.106L131.701 102.345L131.823 102.147ZM131.198 103.093L132.366 103.902L132.23 104.1L131.069 103.283L131.198 103.093ZM130.519 104.025L131.653 104.882L131.612 104.929L130.451 104.113L130.519 104.025ZM134.749 111.962L135.475 112.642C131.41 117.158 126.224 120.514 120.445 122.369L120.16 121.41C125.772 119.607 130.808 116.348 134.755 111.962H134.749ZM115.788 126.695L116.012 128.116C113.272 128.556 110.496 128.725 107.723 128.62L107.818 127.184C110.486 127.284 113.158 127.12 115.795 126.695H115.788ZM110.656 95.7403H110.839L111.002 96.9578H110.791L110.656 95.7403ZM111.945 96.1688L112.095 96.7197L111.878 96.7741C111.749 97.7876 111.626 98.3589 111.626 98.3589C111.626 98.3589 110.69 84.6467 99.6444 72.2881C99.4543 72.4037 99.2574 72.5194 99.0741 72.6486L96.9425 69.4926C94.2188 66.9025 91.2181 64.6215 87.995 62.6909C71.3831 52.6517 69.4279 40.1162 70.6838 31.4033H71.6886C72.123 37.0078 75.1236 45.2447 86.5015 53.6923C90.1126 51.1368 94.1005 49.1631 98.3206 47.8429L98.7483 49.2032C94.8313 50.4266 91.1213 52.2358 87.7438 54.5698C88.8504 55.3451 90.018 56.1273 91.2739 56.9095C95.3755 59.413 99.082 62.5146 102.272 66.1122L102.95 65.9013L103.432 65.7653L104.043 65.6021L104.722 65.4524L105.211 65.3504C105.612 65.2756 106.012 65.2076 106.419 65.1532L107.017 69.6014C106.705 69.6423 106.399 69.6967 106.094 69.7511C105.788 69.8055 105.51 69.8735 105.225 69.9347C107.093 72.6582 108.612 75.606 109.746 78.7089H109.855V79.0014C111.795 84.502 112.502 90.3634 111.925 96.1688H111.945ZM128.686 58.0794L128.415 57.9094L129.433 56.2838L129.664 56.4538L128.686 58.0794ZM129.718 58.7596L130.804 57.1816L131.069 57.3652L129.976 58.9364L129.718 58.7596ZM130.974 59.671L132.135 58.1406L132.393 58.3447L131.205 59.8547L130.974 59.671ZM132.196 60.6368L133.411 59.1609L133.662 59.3717L132.434 60.8409L132.196 60.6368ZM133.364 61.6571L134.654 60.2355L134.891 60.46L133.595 61.8679L133.364 61.6571ZM134.491 62.725L135.848 61.3646L136.079 61.6027L134.722 62.963L134.491 62.725ZM135.577 63.8472L136.982 62.5481L137.206 62.793L135.774 64.0445L135.577 63.8472ZM136.602 65.0103L138.062 63.7724L138.279 64.0241L136.806 65.2484L136.602 65.0103ZM137.586 66.221L139.093 65.0443L139.297 65.3028L137.77 66.4659L137.586 66.221ZM138.489 67.4453L140.051 66.3366L140.241 66.6019L138.666 67.697L138.489 67.4453ZM139.528 68.9961L139.358 68.7308L140.967 67.6902L141.144 67.969L139.528 68.9961ZM140.173 70.0572L141.823 69.0845L141.985 69.3702L140.329 70.3292L140.173 70.0572ZM140.926 71.4175L142.617 70.5197L142.766 70.8053L141.069 71.6896L140.926 71.4175ZM141.605 72.7778L143.336 71.9548L143.479 72.2541L141.741 73.0567L141.605 72.7778ZM142.243 74.1994L144.008 73.4512L144.131 73.7573L142.359 74.485L142.243 74.1994ZM142.814 75.6413L144.606 74.9612L144.721 75.274L142.922 75.9542L142.814 75.6413ZM143.364 77.2465L143.323 77.1105L145.135 76.5051L145.19 76.6684L143.364 77.2465ZM146.873 70.1456C145.382 66.6424 143.408 63.3661 141.008 60.4124L142.128 59.5078C144.598 62.5466 146.632 65.9166 148.17 69.5198L146.873 70.1456ZM123.948 32.1787C133.673 34.6401 142.574 39.6388 149.745 46.6662L148.129 48.3258C141.248 41.584 132.704 36.7914 123.371 34.4368L123.948 32.1787ZM128.306 55.556L127.369 57.2292L127.098 57.0728L128.041 55.4064L128.306 55.556ZM126.887 54.7806L126.005 56.481L125.727 56.3382L126.602 54.631L126.887 54.7806ZM125.421 54.0528L124.579 55.7736L124.294 55.6444L125.088 53.9032L125.421 54.0528ZM123.554 53.2638L123.86 53.3863L123.126 55.1615L122.841 55.0391L123.554 53.2638ZM122.027 52.6789L122.339 52.7945L121.66 54.597L121.368 54.4881L122.027 52.6789ZM120.479 52.1688L120.791 52.264L120.207 54.0936L119.915 53.9984L120.479 52.1688ZM119.06 51.7607H119.169L118.721 53.6243L118.571 53.5835L119.06 51.7607ZM117.75 83.4837L117.852 83.6741L116.765 84.2454L116.67 84.0686L117.75 83.4837ZM117.431 86.0343L117.376 85.8438L118.564 85.531L118.619 85.7418L117.431 86.0343ZM118.788 86.6328V86.8709L117.573 87.0001V86.8165L118.171 86.7008L118.788 86.6328ZM117.159 85.1229L117.085 84.9324L118.225 84.4835L118.3 84.6875L117.159 85.1229ZM117.2 93.142L116.195 92.4619L116.311 92.2986L117.322 92.9788L117.2 93.142ZM117.784 92.2102L116.704 91.6253L116.793 91.462L117.886 92.0129L117.784 92.2102ZM118.245 91.2035L117.105 90.7682L117.173 90.5778L118.32 91.0063L118.245 91.2035ZM118.585 90.1561L117.444 89.85L117.492 89.6596L118.687 89.9452L118.585 90.1561ZM118.802 89.1018L117.587 88.9386V88.7481L118.802 88.8774V89.1018ZM117.655 87.9796V87.9115L118.877 87.7755V88.0068L117.655 87.9796ZM117.607 71.3427L119.562 67.3093C122.773 68.8637 125.577 71.1487 127.75 73.9817L124.206 76.7024C122.461 74.4156 120.206 72.5705 117.621 71.3155L117.607 71.3427Z" fill="white"/>
<path d="M101.389 15.7661H99.9365C99.1625 16.1198 97.6487 21.2074 97.54 28.0091H101.946C101.379 23.9545 101.192 19.8556 101.389 15.7661Z" fill="white"/>
<path d="M167.28 60.8271H165.814C164.585 64.1056 159.575 69.6353 155.155 73.3694V80.7764C161.734 75.0494 166.723 66.561 167.28 60.8271Z" fill="white"/>
<path d="M21.7236 42.5718V45.3469C24.709 50.1301 28.6924 54.2093 33.4002 57.3042V50.176C27.6094 47.2445 23.9775 44.6327 21.7236 42.5718Z" fill="white"/>
<path d="M33.2646 170.15V180.108H43.0404C40.7392 179.345 38.6524 178.043 36.9526 176.312C35.2527 174.58 33.9886 172.468 33.2646 170.15Z" fill="white"/>
<path d="M37.7383 198.01C37.194 198.487 36.4848 198.732 35.7628 198.691C35.047 198.731 34.3442 198.487 33.8077 198.01C33.2917 197.487 33.1288 196.847 33.1288 195.65H34.4866C34.448 195.907 34.4612 196.168 34.5253 196.419C34.5895 196.67 34.7032 196.906 34.8599 197.113C35.12 197.341 35.4542 197.467 35.8002 197.467C36.1461 197.467 36.4803 197.341 36.7404 197.113C37.0507 196.68 37.1798 196.143 37.1002 195.616C37.1002 194.331 36.9169 193.936 36.0072 193.576L34.7377 193.059C33.5904 192.589 33.2171 191.957 33.2171 190.263C33.1891 189.843 33.2502 189.421 33.3965 189.026C33.5427 188.631 33.7708 188.271 34.0657 187.971C34.5484 187.535 35.1811 187.303 35.8307 187.325C36.5094 187.287 37.1757 187.519 37.684 187.971C37.9604 188.28 38.1687 188.644 38.295 189.039C38.4214 189.434 38.463 189.851 38.4172 190.263H37.0595C37.1151 189.783 36.9918 189.298 36.7132 188.903C36.4762 188.671 36.1583 188.542 35.8273 188.542C35.4963 188.542 35.1785 188.671 34.9414 188.903C34.646 189.292 34.5056 189.777 34.5477 190.263C34.5477 191.365 34.7242 191.692 35.6135 192.066L36.8694 192.589C38.1389 193.106 38.4376 193.889 38.4376 195.65C38.4308 196.738 38.2746 197.473 37.7383 198.01Z" fill="white"/>
<path d="M44.0862 198.085C43.8536 198.296 43.5814 198.459 43.2854 198.565C42.9894 198.67 42.6754 198.715 42.3619 198.697C42.007 198.718 41.6517 198.66 41.3219 198.528C40.992 198.395 40.6957 198.19 40.4542 197.929C39.6803 197.085 39.6328 195.813 39.6328 193.018C39.6328 190.222 39.6803 188.937 40.4542 188.1C40.9384 187.619 41.5857 187.337 42.2675 187.312C42.9492 187.287 43.6155 187.52 44.1337 187.964C44.6821 188.571 44.9699 189.37 44.9348 190.188H43.577C43.6037 189.733 43.4822 189.282 43.2308 188.903C43.1285 188.77 42.995 188.664 42.8423 188.596C42.6895 188.527 42.5222 188.497 42.3551 188.508C42.18 188.5 42.0056 188.534 41.847 188.609C41.6885 188.684 41.5506 188.796 41.4454 188.937C41.0584 189.467 40.977 190.365 40.977 193.018C40.977 195.67 41.0584 196.568 41.4454 197.099C41.5509 197.238 41.689 197.35 41.8477 197.423C42.0063 197.497 42.1806 197.53 42.3551 197.52C42.5233 197.53 42.6912 197.497 42.8439 197.426C42.9967 197.355 43.1296 197.247 43.2308 197.112C43.4907 196.741 43.6197 196.293 43.5974 195.84H44.9552C44.9662 196.254 44.895 196.665 44.7458 197.05C44.5967 197.436 44.3724 197.787 44.0862 198.085Z" fill="white"/>
<path d="M46.4619 198.609V187.393H47.8197V198.609H46.4619Z" fill="white"/>
<path d="M49.6797 198.609V187.393H53.9837V188.603H51.0239V192.351H53.5764V193.562H51.0239V197.364H53.9837V198.609H49.6797Z" fill="white"/>
<path d="M59.74 198.609L56.8616 190.923V198.609H55.5039V187.393H56.7598L59.6246 195.038V187.393H60.9824V198.609H59.74Z" fill="white"/>
<path d="M67.0588 198.085C66.8263 198.296 66.554 198.459 66.258 198.564C65.962 198.669 65.6481 198.715 65.3345 198.697C64.9787 198.717 64.6227 198.659 64.2919 198.526C63.9611 198.393 63.6634 198.189 63.4201 197.928C62.653 197.085 62.6055 195.813 62.6055 193.018C62.6055 190.222 62.653 188.937 63.4201 188.1C63.6615 187.835 63.9581 187.626 64.2889 187.489C64.6198 187.351 64.9767 187.288 65.3345 187.304C65.6605 187.291 65.9857 187.345 66.2903 187.462C66.5949 187.579 66.8726 187.756 67.1064 187.984C67.6522 188.593 67.9396 189.391 67.9074 190.209H66.5293C66.556 189.754 66.4345 189.303 66.1831 188.923C66.08 188.791 65.9464 188.686 65.7938 188.617C65.6413 188.549 65.4743 188.518 65.3074 188.528C65.1323 188.519 64.9576 188.554 64.7989 188.629C64.6403 188.703 64.5024 188.816 64.3977 188.957C64.0107 189.488 63.9293 190.385 63.9293 193.038C63.9293 195.691 64.0107 196.588 64.3977 197.119C64.5028 197.259 64.6408 197.371 64.7996 197.445C64.9583 197.518 65.1328 197.551 65.3074 197.541C65.4754 197.549 65.6429 197.516 65.7955 197.445C65.948 197.374 66.081 197.267 66.1831 197.133C66.443 196.761 66.572 196.314 66.5497 195.861H67.9074C67.9297 196.685 67.6245 197.485 67.0588 198.085Z" fill="white"/>
<path d="M69.3936 198.609V187.393H73.7044V188.603H70.7377V192.351H73.3174V193.562H70.7377V197.364H73.7044V198.609H69.3936Z" fill="white"/>
<path d="M79.38 198.01C78.8357 198.487 78.1265 198.731 77.4045 198.69C77.0499 198.713 76.6943 198.664 76.3586 198.547C76.0229 198.43 75.7138 198.248 75.4494 198.01C74.9266 197.486 74.7705 196.847 74.7705 195.65H76.1282C76.0897 195.906 76.1029 196.168 76.167 196.419C76.2312 196.67 76.3449 196.906 76.5016 197.112C76.7617 197.341 77.0959 197.467 77.4419 197.467C77.7878 197.467 78.122 197.341 78.3821 197.112C78.6924 196.68 78.8215 196.143 78.7419 195.616C78.7419 194.33 78.5518 193.936 77.6489 193.575L76.3794 193.058C75.2321 192.589 74.8588 191.957 74.8588 190.263C74.8312 189.843 74.8919 189.422 75.0369 189.027C75.1819 188.632 75.408 188.273 75.7006 187.971C76.1865 187.535 76.8209 187.304 77.4724 187.325C78.1509 187.288 78.8167 187.52 79.3257 187.971C79.6022 188.28 79.8104 188.643 79.9367 189.038C80.0631 189.433 80.1047 189.851 80.0589 190.263H78.7012C78.7536 189.782 78.6306 189.299 78.3549 188.903C78.1179 188.671 77.8 188.542 77.469 188.542C77.138 188.542 76.8201 188.671 76.5831 188.903C76.2877 189.291 76.1473 189.776 76.1893 190.263C76.1893 191.365 76.3659 191.691 77.2552 192.065L78.5111 192.589C79.7806 193.106 80.0793 193.888 80.0793 195.65C80.1064 196.738 79.9163 197.473 79.38 198.01Z" fill="white"/>
<path d="M89.9777 198.609L89.2241 197.46C88.9518 197.853 88.5885 198.174 88.1652 198.395C87.7419 198.617 87.2713 198.732 86.7938 198.731C85.3546 198.731 84.2412 197.698 84.2412 195.956C84.2412 194.637 84.8386 193.644 86.047 192.501C85.1509 191.256 84.7572 190.617 84.7572 189.685C84.7572 188.257 85.6057 187.318 86.9092 187.318C87.2051 187.296 87.5023 187.339 87.78 187.444C88.0577 187.549 88.3091 187.713 88.5167 187.926C88.7243 188.138 88.883 188.394 88.9817 188.674C89.0805 188.955 89.1169 189.253 89.0883 189.549C89.0883 190.869 88.5656 191.664 87.5201 192.685L89.2241 195.276C89.5666 194.535 89.7691 193.737 89.8215 192.923H90.9688C90.9047 194.143 90.5559 195.331 89.9505 196.392L91.3625 198.609H89.9777ZM86.6716 193.521C86.3223 193.804 86.0348 194.156 85.827 194.555C85.6191 194.954 85.4953 195.392 85.4632 195.841C85.4632 196.82 86.0131 197.568 86.9092 197.568C87.2576 197.531 87.5919 197.41 87.8838 197.216C88.1757 197.022 88.4166 196.76 88.586 196.453L86.6716 193.521ZM86.8956 188.406C86.2167 188.406 85.9044 188.991 85.9044 189.604C85.9044 190.216 86.1556 190.658 86.8481 191.61C87.1637 191.36 87.42 191.043 87.5984 190.682C87.7769 190.321 87.873 189.925 87.8799 189.522C87.894 189.383 87.8792 189.242 87.8365 189.109C87.7937 188.976 87.7239 188.853 87.6314 188.748C87.5389 188.644 87.4258 188.559 87.2992 188.5C87.1726 188.441 87.0351 188.41 86.8956 188.406Z" fill="white"/>
<path d="M95.3271 198.609V187.393H96.6849V198.609H95.3271Z" fill="white"/>
<path d="M103.039 198.609L100.154 190.957V198.609H98.7959V187.393H100.052L102.923 195.038V187.393H104.281V198.609H103.039Z" fill="white"/>
<path d="M110.656 198.609L107.778 190.957V198.609H106.42V187.393H107.676L110.541 195.038V187.393H111.898V198.609H110.656Z" fill="white"/>
<path d="M118.368 197.929C118.126 198.197 117.828 198.409 117.494 198.547C117.161 198.686 116.801 198.749 116.44 198.731C116.082 198.748 115.726 198.685 115.396 198.546C115.066 198.407 114.771 198.196 114.532 197.929C113.758 197.085 113.711 195.813 113.711 193.018C113.711 190.222 113.758 188.937 114.532 188.1C114.772 187.835 115.068 187.626 115.397 187.489C115.727 187.351 116.083 187.288 116.44 187.305C116.8 187.287 117.159 187.35 117.492 187.487C117.826 187.625 118.125 187.834 118.368 188.1C119.135 188.951 119.169 190.222 119.169 193.018C119.169 195.813 119.135 197.051 118.368 197.929ZM117.35 188.937C117.239 188.803 117.1 188.695 116.943 188.621C116.785 188.547 116.614 188.508 116.44 188.508C116.266 188.508 116.095 188.547 115.937 188.621C115.78 188.695 115.641 188.803 115.53 188.937C115.143 189.467 115.062 190.365 115.062 193.018C115.062 195.671 115.143 196.568 115.53 197.099C115.642 197.231 115.782 197.337 115.939 197.41C116.096 197.482 116.267 197.52 116.44 197.52C116.613 197.52 116.784 197.482 116.941 197.41C117.098 197.337 117.238 197.231 117.35 197.099C117.743 196.568 117.818 195.671 117.818 193.018C117.818 190.365 117.743 189.433 117.35 188.903V188.937Z" fill="white"/>
<path d="M123.901 198.609H122.543L120.133 187.427H121.62L123.235 196.425L124.865 187.427H126.338L123.901 198.609Z" fill="white"/>
<path d="M131.191 198.609L130.655 195.97H128.069L127.539 198.609H126.127L128.727 187.427H130.031L132.617 198.609H131.191ZM129.372 189.61L128.306 194.725H130.39L129.372 189.61Z" fill="white"/>
<path d="M135.773 188.603V198.609H134.416V188.603H132.528V187.393H137.627V188.603H135.773Z" fill="white"/>
<path d="M139.107 198.609V187.393H140.465V198.609H139.107Z" fill="white"/>
<path d="M146.975 197.929C146.734 198.197 146.435 198.409 146.102 198.547C145.768 198.686 145.408 198.749 145.047 198.731C144.69 198.748 144.333 198.685 144.003 198.546C143.673 198.407 143.378 198.196 143.14 197.929C142.373 197.085 142.325 195.813 142.325 193.018C142.325 190.222 142.373 188.937 143.14 188.1C143.38 187.835 143.675 187.626 144.005 187.489C144.335 187.351 144.691 187.288 145.047 187.305C145.407 187.287 145.767 187.35 146.1 187.487C146.433 187.625 146.732 187.834 146.975 188.1C147.749 188.951 147.777 190.222 147.777 193.018C147.777 195.813 147.749 197.051 146.975 197.929ZM145.957 188.903C145.847 188.769 145.709 188.661 145.552 188.587C145.395 188.513 145.224 188.475 145.051 188.475C144.878 188.475 144.707 188.513 144.55 188.587C144.393 188.661 144.255 188.769 144.145 188.903C143.751 189.433 143.669 190.331 143.669 192.984C143.669 195.637 143.751 196.534 144.145 197.065C144.256 197.197 144.395 197.303 144.551 197.375C144.708 197.448 144.878 197.486 145.051 197.486C145.223 197.486 145.394 197.448 145.55 197.375C145.707 197.303 145.846 197.197 145.957 197.065C146.351 196.534 146.432 195.637 146.432 192.984C146.432 190.331 146.351 189.433 145.957 188.903Z" fill="white"/>
<path d="M153.859 198.609L150.974 190.957V198.609H149.616V187.393H150.872L153.737 195.038V187.393H155.095V198.609H153.859Z" fill="white"/>
</svg>
