<svg width="1161" height="1196" viewBox="0 0 1161 1196" fill="none" xmlns="http://www.w3.org/2000/svg">
<mask id="mask0_355_21150" style="mask-type:alpha" maskUnits="userSpaceOnUse" x="0" y="0" width="1161" height="1196">
<rect width="1161" height="1196" fill="#D9D9D9"/>
</mask>
<g mask="url(#mask0_355_21150)">
<path d="M730.209 917.076L536.523 1189.2M167 140.463L537.636 402.185M989.143 0L948.584 318.62M1152.82 673.929C1152.82 674.307 1152.82 674.685 1152.82 675.062M1152.12 683.948C1148.06 731.002 1131.41 776.026 1103.98 814.139M1101.34 817.746C1101.09 818.04 1100.89 818.376 1100.68 818.669M985.516 320.842L986.959 321.22M998.541 324.657C1050.67 340.958 1098.27 369.597 1137.41 408.226C1176.56 446.854 1206.15 494.372 1223.76 546.882M1225.65 552.627L1226.15 554.095M466.04 217.99C483.475 238.954 522.963 279.249 544.355 305.329C531.457 317.395 519.788 330.754 509.525 345.203L415.877 275.936C429.41 253.99 446.351 234.421 466.04 217.99ZM345.641 1002.86C375.112 986.972 411.178 967.726 447.656 948.355C458.578 967.222 471.323 984.934 485.701 1001.23L404.13 1084.12C380.664 1060.24 360.939 1032.83 345.641 1002.86ZM979.416 647.639C981.536 663.693 978.93 680.026 971.928 694.574C964.926 709.122 953.841 721.232 940.076 729.374C926.31 737.516 910.48 741.325 894.587 740.318C878.694 739.311 863.451 733.535 850.784 723.719C838.117 713.903 828.595 700.487 823.421 685.168C818.247 669.849 817.653 653.313 821.715 637.651C825.776 621.988 834.311 607.902 846.24 597.172C858.169 586.442 872.957 579.549 888.735 577.366C899.226 575.914 909.896 576.581 920.134 579.328C930.372 582.075 939.977 586.849 948.4 593.376C956.822 599.903 963.897 608.055 969.219 617.366C974.541 626.677 978.006 636.964 979.416 647.639ZM714.999 538.287C710.481 545.2 706.353 552.367 702.634 559.755L740.307 579.336C743.317 573.36 746.661 567.564 750.323 561.977L714.999 538.287ZM774.684 476.777L798.384 512.459C820.883 496.944 846.623 486.967 873.567 483.318L868.126 440.634C834.64 445.13 802.646 457.505 774.684 476.777ZM725.51 523.487L758.732 550.07C766.984 539.376 776.416 529.683 786.843 521.18L760.34 487.637C747.402 498.172 735.714 510.203 725.51 523.487ZM1079.12 783.196C1083.65 776.273 1087.78 769.092 1091.49 761.686L1053.81 742.105C1050.82 748.082 1047.49 753.878 1043.84 759.464L1079.12 783.196ZM1068.69 798.039L1035.39 771.456C1027.13 782.152 1017.7 791.858 1007.28 800.387L1033.78 833.93C1046.72 823.349 1058.43 811.308 1068.69 798.039ZM992.44 460.929L973.975 499.672C998.436 511.73 1019.8 529.416 1036.38 551.329L1069.89 524.997C1049.31 497.817 1022.79 475.882 992.44 460.929ZM928.098 440.929L922.081 483.571C935.33 485.498 948.318 488.973 960.785 493.928L976.077 453.718C960.609 447.628 944.514 443.338 928.098 440.929ZM647.854 871.247L640.435 877.075C675.577 923.201 721.954 959.19 774.972 981.479L778.517 972.674C727.032 951.001 681.995 916.041 647.854 871.247ZM1136.05 889.863C1098.71 931.978 1051.07 963.26 997.964 980.516L1000.85 989.614C1055.51 971.831 1104.55 939.608 1142.97 896.237L1136.05 889.863ZM992.441 460.927L973.975 499.67C998.436 511.728 1019.8 529.414 1036.38 551.327L1069.89 524.995C1049.31 497.815 1022.79 475.88 992.441 460.927ZM928.099 440.927L922.081 483.569C935.331 485.496 948.318 488.971 960.785 493.926L976.077 453.715C960.609 447.626 944.514 443.336 928.099 440.927ZM707.827 775.313L744.718 754.349C731.301 730.298 723.594 703.391 722.213 675.773L679.964 678.037C681.7 712.224 691.24 745.529 707.827 775.313ZM749.664 829.025L778.517 797.452C768.721 788.194 759.983 777.842 752.467 766.592L717.39 790.743C726.668 804.722 737.497 817.567 749.664 829.025ZM1262.92 482.689C1248.38 448.084 1229.15 415.721 1205.79 386.545L1195.23 395.267C1217.91 423.611 1236.56 455.058 1250.63 488.685L1262.92 482.689ZM1259.7 759.59C1248.46 797.699 1231.65 833.87 1209.83 866.886L1221.04 874.643C1243.72 840.394 1261.18 802.847 1272.81 763.28L1259.7 759.59ZM370.495 553.466C352.68 648.218 359.891 746.083 391.393 837.075L412.002 829.738C381.869 742.409 374.986 648.525 392.053 557.617L370.495 553.466ZM1033.78 123.985L1028.38 145.62C1116.63 168.252 1197.41 214.256 1262.5 278.955L1277.76 263.022C1209.93 195.571 1125.75 147.598 1033.78 123.985ZM956.663 1031.33C931.769 1035.37 906.548 1036.93 881.357 1035.99L880.491 1049.61C906.689 1050.64 932.922 1049.03 958.806 1044.79L956.663 1031.33ZM779.176 1094.94C713.77 1076.03 653.441 1042.26 602.745 996.162C552.048 950.068 512.308 892.859 486.525 828.856L469.502 835.774C496.336 902.369 537.702 961.887 590.472 1009.83C643.242 1057.77 706.036 1092.88 774.106 1112.51L779.176 1094.94ZM673.863 351.786C710.274 323.208 751.391 301.443 795.293 287.508L791.171 274.301C745.788 288.699 703.288 311.203 665.661 340.758L673.863 351.786ZM537.636 554.849L524.529 551.034C505.067 619.669 503.83 692.324 520.943 761.603L534.091 758.249C517.604 691.319 518.827 621.143 537.636 554.849ZM619.743 219.625C658.059 194.51 699.435 174.593 742.822 160.379L736.227 139.079C690.867 153.961 647.608 174.793 607.543 201.051L619.743 219.625ZM865.694 180.505L867.013 198.996C898.799 196.355 930.772 197.156 962.392 201.386L964.824 182.979C931.958 178.616 898.731 177.787 865.694 180.505ZM783.38 1175.4C745.955 1165.99 709.679 1152.36 675.223 1134.77L665.661 1154.44C701.614 1172.74 739.449 1186.92 778.475 1196.74L783.38 1175.4ZM1197.34 1096.66L1209.91 1114.9C1254.46 1083.89 1294.26 1046.35 1328 1003.49V966.762C1292.26 1017.51 1248.03 1061.48 1197.34 1096.66Z" stroke="#DADADA" stroke-width="0.5" stroke-miterlimit="10"/>
</g>
</svg>
