<svg width="35" height="35" viewBox="0 0 35 35" fill="none" xmlns="http://www.w3.org/2000/svg">
<rect width="35" height="35" rx="2" fill="#00746F"/>
<path fill-rule="evenodd" clip-rule="evenodd" d="M12 12.5L23 12.5C23.2761 12.5 23.5 12.7239 23.5 13C23.5 13.2761 23.2761 13.5 23 13.5L12 13.5C11.7239 13.5 11.5 13.2761 11.5 13C11.5 12.7239 11.7239 12.5 12 12.5Z" fill="#FCFCFC"/>
<path fill-rule="evenodd" clip-rule="evenodd" d="M16 15.5C16.2761 15.5 16.5 15.7239 16.5 16V20C16.5 20.2761 16.2761 20.5 16 20.5C15.7239 20.5 15.5 20.2761 15.5 20V16C15.5 15.7239 15.7239 15.5 16 15.5Z" fill="#FCFCFC"/>
<path fill-rule="evenodd" clip-rule="evenodd" d="M19 15.5C19.2761 15.5 19.5 15.7239 19.5 16V20C19.5 20.2761 19.2761 20.5 19 20.5C18.7239 20.5 18.5 20.2761 18.5 20V16C18.5 15.7239 18.7239 15.5 19 15.5Z" fill="#FCFCFC"/>
<path fill-rule="evenodd" clip-rule="evenodd" d="M13 12.5C13.2761 12.5 13.5 12.7239 13.5 13V22.5H21.5V13C21.5 12.7239 21.7239 12.5 22 12.5C22.2761 12.5 22.5 12.7239 22.5 13V22.5C22.5 22.7652 22.3946 23.0196 22.2071 23.2071C22.0196 23.3946 21.7652 23.5 21.5 23.5H13.5C13.2348 23.5 12.9804 23.3946 12.7929 23.2071C12.6054 23.0196 12.5 22.7652 12.5 22.5V13C12.5 12.7239 12.7239 12.5 13 12.5Z" fill="#FCFCFC"/>
<path fill-rule="evenodd" clip-rule="evenodd" d="M14.9393 10.9393C15.2206 10.658 15.6022 10.5 16 10.5H19C19.3978 10.5 19.7794 10.658 20.0607 10.9393C20.342 11.2206 20.5 11.6022 20.5 12V13C20.5 13.2761 20.2761 13.5 20 13.5C19.7239 13.5 19.5 13.2761 19.5 13V12C19.5 11.8674 19.4473 11.7402 19.3536 11.6464C19.2598 11.5527 19.1326 11.5 19 11.5H16C15.8674 11.5 15.7402 11.5527 15.6464 11.6464C15.5527 11.7402 15.5 11.8674 15.5 12V13C15.5 13.2761 15.2761 13.5 15 13.5C14.7239 13.5 14.5 13.2761 14.5 13V12C14.5 11.6022 14.658 11.2206 14.9393 10.9393Z" fill="#FCFCFC"/>
</svg>
