<svg width="20" height="23" viewBox="0 0 20 23" fill="none" xmlns="http://www.w3.org/2000/svg">
<path d="M17.5833 2.83334H16.5V0.666672H14.3333V2.83334H5.66667V0.666672H3.5V2.83334H2.41667C1.21417 2.83334 0.260833 3.80834 0.260833 5L0.25 20.1667C0.25 20.7413 0.478273 21.2924 0.884602 21.6987C1.29093 22.1051 1.84203 22.3333 2.41667 22.3333H17.5833C18.775 22.3333 19.75 21.3583 19.75 20.1667V5C19.75 3.80834 18.775 2.83334 17.5833 2.83334ZM17.5833 20.1667H2.41667V9.33334H17.5833V20.1667ZM17.5833 7.16667H2.41667V5H17.5833V7.16667ZM6.75 13.6667H4.58333V11.5H6.75V13.6667ZM11.0833 13.6667H8.91667V11.5H11.0833V13.6667ZM15.4167 13.6667H13.25V11.5H15.4167V13.6667ZM6.75 18H4.58333V15.8333H6.75V18ZM11.0833 18H8.91667V15.8333H11.0833V18ZM15.4167 18H13.25V15.8333H15.4167V18Z" fill="#00746F"/>
</svg>
