<svg width="24" height="25" viewBox="0 0 24 25" fill="none" xmlns="http://www.w3.org/2000/svg">
<path fill-rule="evenodd" clip-rule="evenodd" d="M12 4.25C7.44365 4.25 3.75 7.94365 3.75 12.5C3.75 17.0563 7.44365 20.75 12 20.75C16.5563 20.75 20.25 17.0563 20.25 12.5C20.25 7.94365 16.5563 4.25 12 4.25ZM2.25 12.5C2.25 7.11522 6.61522 2.75 12 2.75C17.3848 2.75 21.75 7.11522 21.75 12.5C21.75 17.8848 17.3848 22.25 12 22.25C6.61522 22.25 2.25 17.8848 2.25 12.5Z" fill="#00746F"/>
<path fill-rule="evenodd" clip-rule="evenodd" d="M12 7.25C12.4142 7.25 12.75 7.58579 12.75 8V13.25C12.75 13.6642 12.4142 14 12 14C11.5858 14 11.25 13.6642 11.25 13.25V8C11.25 7.58579 11.5858 7.25 12 7.25Z" fill="#00746F"/>
<path d="M12 17.75C12.6213 17.75 13.125 17.2463 13.125 16.625C13.125 16.0037 12.6213 15.5 12 15.5C11.3787 15.5 10.875 16.0037 10.875 16.625C10.875 17.2463 11.3787 17.75 12 17.75Z" fill="#00746F"/>
</svg>
